<svg width="76" height="16" viewBox="0 0 76 16" fill="none" xmlns="http://www.w3.org/2000/svg">
<path d="M7.41 15.3C5.97 15.3 4.74333 14.9867 3.73 14.36C2.71667 13.7267 1.94 12.8467 1.4 11.72C0.866667 10.5933 0.6 9.28667 0.6 7.8C0.6 6.31333 0.866667 5.00667 1.4 3.88C1.94 2.75333 2.71667 1.87667 3.73 1.25C4.74333 0.616666 5.97 0.3 7.41 0.3C9.07 0.3 10.4433 0.719999 11.53 1.56C12.6233 2.4 13.3833 3.53 13.81 4.95L11.69 5.52C11.41 4.51333 10.91 3.72333 10.19 3.15C9.47667 2.57667 8.55 2.29 7.41 2.29C6.39 2.29 5.54 2.52 4.86 2.98C4.18 3.44 3.66667 4.08333 3.32 4.91C2.98 5.73667 2.81 6.7 2.81 7.8C2.80333 8.9 2.97 9.86333 3.31 10.69C3.65667 11.5167 4.17 12.16 4.85 12.62C5.53667 13.08 6.39 13.31 7.41 13.31C8.55 13.31 9.47667 13.0233 10.19 12.45C10.91 11.87 11.41 11.08 11.69 10.08L13.81 10.65C13.3833 12.07 12.6233 13.2 11.53 14.04C10.4433 14.88 9.07 15.3 7.41 15.3ZM22.0194 15.3C20.5794 15.3 19.3527 14.9867 18.3394 14.36C17.326 13.7267 16.5494 12.8467 16.0094 11.72C15.476 10.5933 15.2094 9.28667 15.2094 7.8C15.2094 6.31333 15.476 5.00667 16.0094 3.88C16.5494 2.75333 17.326 1.87667 18.3394 1.25C19.3527 0.616666 20.5794 0.3 22.0194 0.3C23.4527 0.3 24.676 0.616666 25.6894 1.25C26.7094 1.87667 27.486 2.75333 28.0194 3.88C28.5527 5.00667 28.8194 6.31333 28.8194 7.8C28.8194 9.28667 28.5527 10.5933 28.0194 11.72C27.486 12.8467 26.7094 13.7267 25.6894 14.36C24.676 14.9867 23.4527 15.3 22.0194 15.3ZM22.0194 13.31C23.0394 13.3233 23.886 13.1 24.5594 12.64C25.2394 12.1733 25.7494 11.5267 26.0894 10.7C26.4294 9.86667 26.5994 8.9 26.5994 7.8C26.5994 6.7 26.4294 5.74 26.0894 4.92C25.7494 4.09333 25.2394 3.45 24.5594 2.99C23.886 2.53 23.0394 2.29667 22.0194 2.29C20.9994 2.27667 20.1494 2.5 19.4694 2.96C18.796 3.42 18.2894 4.06667 17.9494 4.9C17.6094 5.73333 17.436 6.7 17.4294 7.8C17.4227 8.9 17.5894 9.86333 17.9294 10.69C18.2694 11.51 18.7794 12.15 19.4594 12.61C20.146 13.07 20.9994 13.3033 22.0194 13.31ZM30.8141 15V0.599999H32.9341L40.0241 11.3V0.599999H42.1441V15H40.0241L32.9341 4.29V15H30.8141ZM48.5252 15V2.57H43.7352V0.599999H55.4052V2.57H50.6152V15H48.5252ZM57.2055 15V0.599999H59.2955V15H57.2055ZM73.5884 15.29L69.5684 11.29L70.9084 9.95L74.9084 13.95L73.5884 15.29ZM68.3084 15.3C66.8684 15.3 65.6418 14.9867 64.6284 14.36C63.6151 13.7267 62.8384 12.8467 62.2984 11.72C61.7651 10.5933 61.4984 9.28667 61.4984 7.8C61.4984 6.31333 61.7651 5.00667 62.2984 3.88C62.8384 2.75333 63.6151 1.87667 64.6284 1.25C65.6418 0.616666 66.8684 0.3 68.3084 0.3C69.7418 0.3 70.9651 0.616666 71.9784 1.25C72.9984 1.87667 73.7751 2.75333 74.3084 3.88C74.8418 5.00667 75.1084 6.31333 75.1084 7.8C75.1084 9.28667 74.8418 10.5933 74.3084 11.72C73.7751 12.8467 72.9984 13.7267 71.9784 14.36C70.9651 14.9867 69.7418 15.3 68.3084 15.3ZM68.3084 13.31C69.3284 13.3233 70.1751 13.1 70.8484 12.64C71.5284 12.1733 72.0384 11.5267 72.3784 10.7C72.7184 9.86667 72.8884 8.9 72.8884 7.8C72.8884 6.7 72.7184 5.74 72.3784 4.92C72.0384 4.09333 71.5284 3.45 70.8484 2.99C70.1751 2.53 69.3284 2.29667 68.3084 2.29C67.2884 2.27667 66.4384 2.5 65.7584 2.96C65.0851 3.42 64.5784 4.06667 64.2384 4.9C63.8984 5.73333 63.7251 6.7 63.7184 7.8C63.7118 8.9 63.8784 9.86333 64.2184 10.69C64.5584 11.51 65.0684 12.15 65.7484 12.61C66.4351 13.07 67.2884 13.3033 68.3084 13.31Z" fill="white"/>
</svg>
