<svg width="24" height="24" viewBox="0 0 24 24" fill="none" xmlns="http://www.w3.org/2000/svg">
<path d="M12.0088 13.391L12 13.3821L11.9911 13.391L7.09115 18.291C6.91039 18.4717 6.68034 18.5623 6.39999 18.5623C6.11963 18.5623 5.88959 18.4717 5.70883 18.291C5.52807 18.1102 5.43749 17.8802 5.43749 17.5998C5.43749 17.3194 5.52807 17.0894 5.70883 16.9086L10.6088 12.0086L10.6177 11.9998L10.6088 11.991L5.70883 7.09097C5.52807 6.91021 5.43749 6.68016 5.43749 6.3998C5.43749 6.11945 5.52807 5.8894 5.70883 5.70864C5.88959 5.52788 6.11963 5.4373 6.39999 5.4373C6.68034 5.4373 6.91039 5.52788 7.09115 5.70864L11.9911 10.6086L12 10.6175L12.0088 10.6086L16.9088 5.70864C17.0896 5.52788 17.3196 5.4373 17.6 5.4373C17.8803 5.4373 18.1104 5.52788 18.2911 5.70864C18.4719 5.8894 18.5625 6.11945 18.5625 6.3998C18.5625 6.68016 18.4719 6.91021 18.2911 7.09097L13.3911 11.991L13.3823 11.9998L13.3911 12.0086L18.2911 16.9086C18.4719 17.0894 18.5625 17.3194 18.5625 17.5998C18.5625 17.8802 18.4719 18.1102 18.2911 18.291C18.1104 18.4717 17.8803 18.5623 17.6 18.5623C17.3196 18.5623 17.0896 18.4717 16.9088 18.291L12.0088 13.391Z" fill="#2A3238" stroke="#343536" stroke-width="0.025"/>
</svg>
