<svg xmlns="http://www.w3.org/2000/svg" width="18" height="18" viewBox="0 0 18 18" fill="none">
<path d="M4.7147 15.6905C4.32185 15.6905 3.98554 15.5526 3.70578 15.2767C3.42601 15.0009 3.28613 14.6693 3.28613 14.282V3.01441C3.28613 2.62708 3.42601 2.29551 3.70578 2.01969C3.98554 1.74387 4.32185 1.60596 4.7147 1.60596H9.8397C10.0302 1.60596 10.2117 1.64117 10.3843 1.71159C10.557 1.78201 10.7088 1.88178 10.8397 2.01089L14.304 5.42638C14.4349 5.55549 14.5361 5.70514 14.6076 5.87532C14.679 6.04551 14.7147 6.2245 14.7147 6.41229V14.282C14.7147 14.6693 14.5748 15.0009 14.2951 15.2767C14.0153 15.5526 13.679 15.6905 13.2861 15.6905H4.7147ZM9.7147 5.83131V3.01441H4.7147V14.282H13.2861V6.53553H10.429C10.2266 6.53553 10.057 6.46805 9.92006 6.33307C9.78316 6.19809 9.7147 6.03084 9.7147 5.83131Z" fill="white"/>
</svg>