<svg width="164" height="36" viewBox="0 0 164 36" fill="none" xmlns="http://www.w3.org/2000/svg">
<rect x="0.5" y="0.5" width="163" height="35" rx="3.5" stroke="#BFC4C8"/>
<path d="M17.9912 24.1836L18.0125 24.205V24.1748V17.9998C18.0125 17.7196 18.1072 17.4854 18.2964 17.2961C18.4856 17.1069 18.7199 17.0123 19 17.0123C19.2802 17.0123 19.5145 17.1069 19.7037 17.2961C19.8929 17.4854 19.9875 17.7196 19.9875 17.9998V24.1748V24.205L20.0089 24.1836L21.8839 22.3086C22.0648 22.1277 22.2909 22.033 22.5629 22.0248C22.8344 22.0166 23.0686 22.111 23.2662 22.3086L23.2666 22.309C23.4641 22.49 23.5668 22.716 23.5751 22.9877C23.5833 23.2591 23.4888 23.4933 23.2912 23.691L19.6912 27.291C19.5923 27.3898 19.4855 27.4596 19.3708 27.5005C19.2556 27.5417 19.1321 27.5623 19 27.5623C18.868 27.5623 18.7445 27.5417 18.6293 27.5005C18.5146 27.4596 18.4078 27.3898 18.3089 27.291L14.7089 23.691C14.5281 23.5101 14.4375 23.2842 14.4375 23.0123C14.4375 22.7408 14.5361 22.5065 14.7337 22.3088C14.9315 22.1276 15.1619 22.033 15.4254 22.0248C15.6884 22.0166 15.9185 22.1109 16.1162 22.3086L17.9912 24.1836ZM12.0125 11.8248V11.7946L11.9912 11.816L10.1162 13.691C9.90167 13.9055 9.66337 14.0037 9.40083 13.9873C9.1371 13.9708 8.915 13.8721 8.73389 13.691C8.53616 13.4932 8.43755 13.2589 8.43755 12.9873C8.43755 12.7154 8.52805 12.4895 8.70889 12.3086L12.3089 8.70864C12.4078 8.60977 12.5146 8.54004 12.6293 8.49908C12.7445 8.45793 12.868 8.4373 13 8.4373C13.1321 8.4373 13.2556 8.45793 13.3708 8.49908C13.4855 8.54004 13.5923 8.60977 13.6912 8.70864L17.2912 12.3086C17.472 12.4894 17.5625 12.7194 17.5625 12.9998C17.5625 13.2802 17.472 13.5102 17.2912 13.691C17.0935 13.8887 16.8591 13.9873 16.5875 13.9873C16.316 13.9873 16.0816 13.8887 15.8839 13.691L14.0089 11.816L13.9875 11.7946V11.8248V17.9998C13.9875 18.28 13.8929 18.5143 13.7037 18.7035C13.5145 18.8927 13.2802 18.9873 13 18.9873C12.7199 18.9873 12.4856 18.8927 12.2964 18.7035C12.1072 18.5143 12.0125 18.28 12.0125 17.9998V11.8248Z" fill="#343536" stroke="#343536" stroke-width="0.025"/>
<path d="M36.98 23V12.92H38.303L41.957 20.501L45.59 12.92H46.927V22.993H45.541V16.098L42.286 23H41.621L38.359 16.098V23H36.98ZM52.1712 23.21C51.4152 23.21 50.7595 23.0397 50.2042 22.699C49.6489 22.3583 49.2195 21.8893 48.9162 21.292C48.6175 20.69 48.4682 19.997 48.4682 19.213C48.4682 18.4243 48.6222 17.7313 48.9302 17.134C49.2382 16.532 49.6699 16.0653 50.2252 15.734C50.7805 15.398 51.4292 15.23 52.1712 15.23C52.9272 15.23 53.5829 15.4003 54.1382 15.741C54.6935 16.0817 55.1229 16.5507 55.4262 17.148C55.7295 17.7453 55.8812 18.4337 55.8812 19.213C55.8812 20.0017 55.7272 20.697 55.4192 21.299C55.1159 21.8963 54.6865 22.3653 54.1312 22.706C53.5759 23.042 52.9225 23.21 52.1712 23.21ZM52.1712 21.831C52.8945 21.831 53.4335 21.5883 53.7882 21.103C54.1475 20.613 54.3272 19.983 54.3272 19.213C54.3272 18.4243 54.1452 17.7943 53.7812 17.323C53.4219 16.847 52.8852 16.609 52.1712 16.609C51.6812 16.609 51.2775 16.721 50.9602 16.945C50.6429 17.1643 50.4072 17.47 50.2532 17.862C50.0992 18.2493 50.0222 18.6997 50.0222 19.213C50.0222 20.0063 50.2042 20.641 50.5682 21.117C50.9322 21.593 51.4665 21.831 52.1712 21.831ZM60.1737 23.203C59.2544 23.203 58.5054 23 57.9267 22.594C57.3481 22.188 56.9934 21.6163 56.8627 20.879L58.3607 20.648C58.4541 21.04 58.6687 21.3503 59.0047 21.579C59.3454 21.803 59.7677 21.915 60.2717 21.915C60.7291 21.915 61.0861 21.8217 61.3427 21.635C61.6041 21.4483 61.7347 21.1917 61.7347 20.865C61.7347 20.6737 61.6881 20.5197 61.5947 20.403C61.5061 20.2817 61.3171 20.1673 61.0277 20.06C60.7384 19.9527 60.2974 19.8197 59.7047 19.661C59.0561 19.493 58.5404 19.3133 58.1577 19.122C57.7797 18.926 57.5091 18.6997 57.3457 18.443C57.1871 18.1817 57.1077 17.8667 57.1077 17.498C57.1077 17.0407 57.2291 16.6417 57.4717 16.301C57.7144 15.9603 58.0551 15.6967 58.4937 15.51C58.9371 15.3233 59.4551 15.23 60.0477 15.23C60.6264 15.23 61.1421 15.321 61.5947 15.503C62.0474 15.685 62.4137 15.944 62.6937 16.28C62.9737 16.6113 63.1417 17.001 63.1977 17.449L61.6997 17.722C61.6484 17.358 61.4781 17.071 61.1887 16.861C60.8994 16.651 60.5237 16.5367 60.0617 16.518C59.6184 16.4993 59.2591 16.574 58.9837 16.742C58.7084 16.9053 58.5707 17.1317 58.5707 17.421C58.5707 17.589 58.6221 17.7313 58.7247 17.848C58.8321 17.9647 59.0374 18.0767 59.3407 18.184C59.6441 18.2913 60.0921 18.4197 60.6847 18.569C61.3194 18.7323 61.8234 18.9143 62.1967 19.115C62.5701 19.311 62.8361 19.5467 62.9947 19.822C63.1581 20.0927 63.2397 20.4217 63.2397 20.809C63.2397 21.5557 62.9667 22.1413 62.4207 22.566C61.8794 22.9907 61.1304 23.203 60.1737 23.203ZM69.1146 23C68.6386 23.0933 68.1719 23.133 67.7146 23.119C67.2573 23.105 66.8489 23.0163 66.4896 22.853C66.1303 22.6897 65.8596 22.433 65.6776 22.083C65.5143 21.7703 65.4256 21.453 65.4116 21.131C65.4023 20.8043 65.3976 20.4357 65.3976 20.025V13.34H66.8676V19.955C66.8676 20.2583 66.8699 20.522 66.8746 20.746C66.8839 20.97 66.9329 21.159 67.0216 21.313C67.1896 21.6023 67.4556 21.768 67.8196 21.81C68.1883 21.8473 68.6199 21.831 69.1146 21.761V23ZM63.9486 16.616V15.44H69.1146V16.616H63.9486ZM73.5113 23V15.44H74.8133V17.274L74.6313 17.036C74.7246 16.7933 74.8459 16.5717 74.9953 16.371C75.1446 16.1657 75.3173 15.9977 75.5133 15.867C75.7046 15.727 75.9169 15.6197 76.1503 15.545C76.3883 15.4657 76.6309 15.419 76.8783 15.405C77.1256 15.3863 77.3636 15.398 77.5923 15.44V16.812C77.3449 16.7467 77.0696 16.728 76.7663 16.756C76.4676 16.784 76.1923 16.8797 75.9403 17.043C75.7023 17.197 75.5133 17.3837 75.3733 17.603C75.2379 17.8223 75.1399 18.0673 75.0793 18.338C75.0186 18.604 74.9883 18.8863 74.9883 19.185V23H73.5113ZM82.1416 23.21C81.3903 23.21 80.7299 23.0467 80.1606 22.72C79.5959 22.3887 79.1549 21.929 78.8376 21.341C78.5249 20.7483 78.3686 20.0623 78.3686 19.283C78.3686 18.457 78.5226 17.7407 78.8306 17.134C79.1433 16.5273 79.5773 16.0583 80.1326 15.727C80.6879 15.3957 81.3343 15.23 82.0716 15.23C82.8416 15.23 83.4973 15.4097 84.0386 15.769C84.5799 16.1237 84.9836 16.63 85.2496 17.288C85.5203 17.946 85.6276 18.7277 85.5716 19.633H84.1086V19.101C84.0993 18.2237 83.9313 17.575 83.6046 17.155C83.2826 16.735 82.7903 16.525 82.1276 16.525C81.3949 16.525 80.8443 16.756 80.4756 17.218C80.1069 17.68 79.9226 18.3473 79.9226 19.22C79.9226 20.0507 80.1069 20.6947 80.4756 21.152C80.8443 21.6047 81.3763 21.831 82.0716 21.831C82.5289 21.831 82.9233 21.7283 83.2546 21.523C83.5906 21.313 83.8519 21.0143 84.0386 20.627L85.4736 21.082C85.1796 21.7587 84.7339 22.2837 84.1366 22.657C83.5393 23.0257 82.8743 23.21 82.1416 23.21ZM79.4466 19.633V18.492H84.8436V19.633H79.4466ZM87.2821 23V12.71H88.7451V23H87.2821ZM94.2002 23.21C93.4489 23.21 92.7885 23.0467 92.2192 22.72C91.6545 22.3887 91.2135 21.929 90.8962 21.341C90.5835 20.7483 90.4272 20.0623 90.4272 19.283C90.4272 18.457 90.5812 17.7407 90.8892 17.134C91.2019 16.5273 91.6359 16.0583 92.1912 15.727C92.7465 15.3957 93.3929 15.23 94.1302 15.23C94.9002 15.23 95.5559 15.4097 96.0972 15.769C96.6385 16.1237 97.0422 16.63 97.3082 17.288C97.5789 17.946 97.6862 18.7277 97.6302 19.633H96.1672V19.101C96.1579 18.2237 95.9899 17.575 95.6632 17.155C95.3412 16.735 94.8489 16.525 94.1862 16.525C93.4535 16.525 92.9029 16.756 92.5342 17.218C92.1655 17.68 91.9812 18.3473 91.9812 19.22C91.9812 20.0507 92.1655 20.6947 92.5342 21.152C92.9029 21.6047 93.4349 21.831 94.1302 21.831C94.5875 21.831 94.9819 21.7283 95.3132 21.523C95.6492 21.313 95.9105 21.0143 96.0972 20.627L97.5322 21.082C97.2382 21.7587 96.7925 22.2837 96.1952 22.657C95.5979 23.0257 94.9329 23.21 94.2002 23.21ZM91.5052 19.633V18.492H96.9022V19.633H91.5052ZM100.971 23L98.2273 15.44H99.7043L101.713 21.166L103.722 15.44H105.199L102.455 23H100.971ZM108.172 23.21C107.612 23.21 107.143 23.1073 106.765 22.902C106.387 22.692 106.1 22.4167 105.904 22.076C105.712 21.7307 105.617 21.3527 105.617 20.942C105.617 20.5593 105.684 20.2233 105.82 19.934C105.955 19.6447 106.156 19.3997 106.422 19.199C106.688 18.9937 107.014 18.828 107.402 18.702C107.738 18.604 108.118 18.5177 108.543 18.443C108.967 18.3683 109.413 18.2983 109.88 18.233C110.351 18.1677 110.818 18.1023 111.28 18.037L110.748 18.331C110.757 17.7383 110.631 17.2997 110.37 17.015C110.113 16.7257 109.67 16.581 109.04 16.581C108.643 16.581 108.279 16.6743 107.948 16.861C107.616 17.043 107.385 17.3463 107.255 17.771L105.89 17.351C106.076 16.7023 106.431 16.1867 106.954 15.804C107.481 15.4213 108.181 15.23 109.054 15.23C109.73 15.23 110.318 15.3467 110.818 15.58C111.322 15.8087 111.69 16.1727 111.924 16.672C112.045 16.9193 112.12 17.1807 112.148 17.456C112.176 17.7313 112.19 18.0277 112.19 18.345V23H110.895V21.271L111.147 21.495C110.834 22.0737 110.435 22.5053 109.95 22.79C109.469 23.07 108.876 23.21 108.172 23.21ZM108.431 22.013C108.846 22.013 109.203 21.9407 109.502 21.796C109.8 21.6467 110.041 21.4577 110.223 21.229C110.405 21.0003 110.524 20.7623 110.58 20.515C110.659 20.291 110.703 20.039 110.713 19.759C110.727 19.479 110.734 19.255 110.734 19.087L111.21 19.262C110.748 19.332 110.328 19.395 109.95 19.451C109.572 19.507 109.229 19.563 108.921 19.619C108.617 19.6703 108.347 19.7333 108.109 19.808C107.908 19.878 107.728 19.962 107.57 20.06C107.416 20.158 107.292 20.277 107.199 20.417C107.11 20.557 107.066 20.7273 107.066 20.928C107.066 21.124 107.115 21.306 107.213 21.474C107.311 21.6373 107.46 21.768 107.661 21.866C107.861 21.964 108.118 22.013 108.431 22.013ZM119.313 23V19.283C119.313 18.989 119.288 18.688 119.236 18.38C119.19 18.0673 119.096 17.778 118.956 17.512C118.821 17.246 118.627 17.0313 118.375 16.868C118.128 16.7047 117.804 16.623 117.402 16.623C117.141 16.623 116.894 16.6673 116.66 16.756C116.427 16.84 116.222 16.9777 116.044 17.169C115.872 17.3603 115.734 17.6123 115.631 17.925C115.533 18.2377 115.484 18.618 115.484 19.066L114.574 18.723C114.574 18.037 114.703 17.4327 114.959 16.91C115.216 16.3827 115.585 15.972 116.065 15.678C116.546 15.384 117.127 15.237 117.808 15.237C118.331 15.237 118.77 15.321 119.124 15.489C119.479 15.657 119.766 15.8787 119.985 16.154C120.209 16.4247 120.38 16.721 120.496 17.043C120.613 17.365 120.692 17.68 120.734 17.988C120.776 18.296 120.797 18.5667 120.797 18.8V23H119.313ZM114 23V15.44H115.309V17.624H115.484V23H114ZM126.947 23C126.471 23.0933 126.004 23.133 125.547 23.119C125.089 23.105 124.681 23.0163 124.322 22.853C123.962 22.6897 123.692 22.433 123.51 22.083C123.346 21.7703 123.258 21.453 123.244 21.131C123.234 20.8043 123.23 20.4357 123.23 20.025V13.34H124.7V19.955C124.7 20.2583 124.702 20.522 124.707 20.746C124.716 20.97 124.765 21.159 124.854 21.313C125.022 21.6023 125.288 21.768 125.652 21.81C126.02 21.8473 126.452 21.831 126.947 21.761V23ZM121.781 16.616V15.44H126.947V16.616H121.781Z" fill="#2A3238"/>
<path d="M142 15L148 21L154 15" stroke="#343536" stroke-width="2" stroke-linecap="round" stroke-linejoin="round"/>
</svg>
