<svg width="94" height="36" viewBox="0 0 94 36" fill="none" xmlns="http://www.w3.org/2000/svg">
<rect x="0.5" y="0.5" width="93" height="35" rx="3.5" stroke="#BFC4C8"/>
<rect x="1" y="1" width="44" height="34" rx="4" fill="#F2EAFD"/>
<path d="M16 17C15.45 17 14.9792 16.8042 14.5875 16.4125C14.1958 16.0208 14 15.55 14 15V11C14 10.45 14.1958 9.97917 14.5875 9.5875C14.9792 9.19583 15.45 9 16 9H20C20.55 9 21.0208 9.19583 21.4125 9.5875C21.8042 9.97917 22 10.45 22 11V15C22 15.55 21.8042 16.0208 21.4125 16.4125C21.0208 16.8042 20.55 17 20 17H16ZM16 27C15.45 27 14.9792 26.8042 14.5875 26.4125C14.1958 26.0208 14 25.55 14 25V21C14 20.45 14.1958 19.9792 14.5875 19.5875C14.9792 19.1958 15.45 19 16 19H20C20.55 19 21.0208 19.1958 21.4125 19.5875C21.8042 19.9792 22 20.45 22 21V25C22 25.55 21.8042 26.0208 21.4125 26.4125C21.0208 26.8042 20.55 27 20 27H16ZM26 17C25.45 17 24.9792 16.8042 24.5875 16.4125C24.1958 16.0208 24 15.55 24 15V11C24 10.45 24.1958 9.97917 24.5875 9.5875C24.9792 9.19583 25.45 9 26 9H30C30.55 9 31.0208 9.19583 31.4125 9.5875C31.8042 9.97917 32 10.45 32 11V15C32 15.55 31.8042 16.0208 31.4125 16.4125C31.0208 16.8042 30.55 17 30 17H26ZM26 27C25.45 27 24.9792 26.8042 24.5875 26.4125C24.1958 26.0208 24 25.55 24 25V21C24 20.45 24.1958 19.9792 24.5875 19.5875C24.9792 19.1958 25.45 19 26 19H30C30.55 19 31.0208 19.1958 31.4125 19.5875C31.8042 19.9792 32 20.45 32 21V25C32 25.55 31.8042 26.0208 31.4125 26.4125C31.0208 26.8042 30.55 27 30 27H26ZM16 15H20V11H16V15ZM26 15H30V11H26V15ZM26 25H30V21H26V25ZM16 25H20V21H16V25Z" fill="#343536"/>
<path d="M67 15C66.7167 15 66.4792 14.9042 66.2875 14.7125C66.0958 14.5208 66 14.2833 66 14C66 13.7167 66.0958 13.4792 66.2875 13.2875C66.4792 13.0958 66.7167 13 67 13H79C79.2833 13 79.5208 13.0958 79.7125 13.2875C79.9042 13.4792 80 13.7167 80 14C80 14.2833 79.9042 14.5208 79.7125 14.7125C79.5208 14.9042 79.2833 15 79 15H67ZM67 19C66.7167 19 66.4792 18.9042 66.2875 18.7125C66.0958 18.5208 66 18.2833 66 18C66 17.7167 66.0958 17.4792 66.2875 17.2875C66.4792 17.0958 66.7167 17 67 17H79C79.2833 17 79.5208 17.0958 79.7125 17.2875C79.9042 17.4792 80 17.7167 80 18C80 18.2833 79.9042 18.5208 79.7125 18.7125C79.5208 18.9042 79.2833 19 79 19H67ZM67 23C66.7167 23 66.4792 22.9042 66.2875 22.7125C66.0958 22.5208 66 22.2833 66 22C66 21.7167 66.0958 21.4792 66.2875 21.2875C66.4792 21.0958 66.7167 21 67 21H79C79.2833 21 79.5208 21.0958 79.7125 21.2875C79.9042 21.4792 80 21.7167 80 22C80 22.2833 79.9042 22.5208 79.7125 22.7125C79.5208 22.9042 79.2833 23 79 23H67ZM63 15C62.7167 15 62.4792 14.9042 62.2875 14.7125C62.0958 14.5208 62 14.2833 62 14C62 13.7167 62.0958 13.4792 62.2875 13.2875C62.4792 13.0958 62.7167 13 63 13C63.2833 13 63.5208 13.0958 63.7125 13.2875C63.9042 13.4792 64 13.7167 64 14C64 14.2833 63.9042 14.5208 63.7125 14.7125C63.5208 14.9042 63.2833 15 63 15ZM63 19C62.7167 19 62.4792 18.9042 62.2875 18.7125C62.0958 18.5208 62 18.2833 62 18C62 17.7167 62.0958 17.4792 62.2875 17.2875C62.4792 17.0958 62.7167 17 63 17C63.2833 17 63.5208 17.0958 63.7125 17.2875C63.9042 17.4792 64 17.7167 64 18C64 18.2833 63.9042 18.5208 63.7125 18.7125C63.5208 18.9042 63.2833 19 63 19ZM63 23C62.7167 23 62.4792 22.9042 62.2875 22.7125C62.0958 22.5208 62 22.2833 62 22C62 21.7167 62.0958 21.4792 62.2875 21.2875C62.4792 21.0958 62.7167 21 63 21C63.2833 21 63.5208 21.0958 63.7125 21.2875C63.9042 21.4792 64 21.7167 64 22C64 22.2833 63.9042 22.5208 63.7125 22.7125C63.5208 22.9042 63.2833 23 63 23Z" fill="#343536"/>
</svg>
