<svg width="40" height="40" viewBox="0 0 40 40" fill="none" xmlns="http://www.w3.org/2000/svg">
<path d="M20.0001 26.4846C19.5279 26.4846 19.132 26.3205 18.8126 25.9923C18.4931 25.6642 18.3334 25.2576 18.3334 24.7724V12.5306L15.2084 15.7409C14.8751 16.0833 14.4862 16.2545 14.0417 16.2545C13.5973 16.2545 13.1945 16.069 12.8334 15.6981C12.5001 15.3556 12.3404 14.949 12.3542 14.4782C12.3681 14.0073 12.5279 13.615 12.8334 13.3011L18.8334 7.13734C19.0001 6.96613 19.1806 6.84485 19.3751 6.77351C19.5695 6.70217 19.7779 6.6665 20.0001 6.6665C20.2223 6.6665 20.4306 6.70217 20.6251 6.77351C20.8195 6.84485 21.0001 6.96613 21.1667 7.13734L27.1667 13.3011C27.5001 13.6435 27.6598 14.0501 27.6459 14.521C27.632 14.9918 27.4723 15.3842 27.1667 15.6981C26.8334 16.0405 26.4376 16.2188 25.9792 16.2331C25.5209 16.2474 25.1251 16.0833 24.7917 15.7409L21.6667 12.5306V24.7724C21.6667 25.2576 21.507 25.6642 21.1876 25.9923C20.8681 26.3205 20.4723 26.4846 20.0001 26.4846ZM10.0001 33.3332C9.08341 33.3332 8.29869 32.9979 7.64591 32.3273C6.99314 31.6567 6.66675 30.8506 6.66675 29.9089V26.4846C6.66675 25.9995 6.82647 25.5928 7.14591 25.2647C7.46536 24.9365 7.86119 24.7724 8.33341 24.7724C8.80564 24.7724 9.20147 24.9365 9.52091 25.2647C9.84036 25.5928 10.0001 25.9995 10.0001 26.4846V29.9089H30.0001V26.4846C30.0001 25.9995 30.1598 25.5928 30.4792 25.2647C30.7987 24.9365 31.1945 24.7724 31.6667 24.7724C32.139 24.7724 32.5348 24.9365 32.8542 25.2647C33.1737 25.5928 33.3334 25.9995 33.3334 26.4846V29.9089C33.3334 30.8506 33.007 31.6567 32.3542 32.3273C31.7015 32.9979 30.9167 33.3332 30.0001 33.3332H10.0001Z" fill="white"/>
</svg>
