<svg width="22" height="21" viewBox="0 0 22 21" fill="none" xmlns="http://www.w3.org/2000/svg">
<path d="M14.725 11.525L13.625 10.425C14.0583 9.24167 13.8333 8.25833 12.95 7.475C12.0667 6.69167 11.1083 6.49167 10.075 6.875L8.975 5.775C9.25833 5.59167 9.575 5.45833 9.925 5.375C10.275 5.29167 10.6333 5.25 11 5.25C12.1833 5.25 13.1875 5.6625 14.0125 6.4875C14.8375 7.3125 15.25 8.31667 15.25 9.5C15.25 9.86667 15.2042 10.2292 15.1125 10.5875C15.0208 10.9458 14.8917 11.2583 14.725 11.525ZM17.95 14.75L16.95 13.75C17.7667 13.15 18.4792 12.4792 19.0875 11.7375C19.6958 10.9958 20.1417 10.25 20.425 9.5C19.5917 7.65 18.3417 6.1875 16.675 5.1125C15.0083 4.0375 13.2 3.5 11.25 3.5C10.55 3.5 9.83333 3.56667 9.1 3.7C8.36667 3.83333 7.79167 3.99167 7.375 4.175L6.225 3C6.80833 2.73333 7.55417 2.5 8.4625 2.3C9.37083 2.1 10.2583 2 11.125 2C13.5083 2 15.6875 2.67917 17.6625 4.0375C19.6375 5.39583 21.0833 7.21667 22 9.5C21.5667 10.5667 21.0083 11.5417 20.325 12.425C19.6417 13.3083 18.85 14.0833 17.95 14.75ZM19.4 20.4L15.2 16.275C14.6167 16.5083 13.9583 16.6875 13.225 16.8125C12.4917 16.9375 11.75 17 11 17C8.56667 17 6.35833 16.3208 4.375 14.9625C2.39167 13.6042 0.933333 11.7833 0 9.5C0.333333 8.63333 0.795833 7.7875 1.3875 6.9625C1.97917 6.1375 2.7 5.35 3.55 4.6L0.4 1.45L1.45 0.375L20.375 19.3L19.4 20.4ZM4.575 5.65C3.95833 6.1 3.3625 6.69167 2.7875 7.425C2.2125 8.15833 1.8 8.85 1.55 9.5C2.4 11.35 3.67917 12.8125 5.3875 13.8875C7.09583 14.9625 9.03333 15.5 11.2 15.5C11.75 15.5 12.2917 15.4667 12.825 15.4C13.3583 15.3333 13.7583 15.2333 14.025 15.1L12.425 13.5C12.2417 13.5833 12.0167 13.6458 11.75 13.6875C11.4833 13.7292 11.2333 13.75 11 13.75C9.83333 13.75 8.83333 13.3417 8 12.525C7.16667 11.7083 6.75 10.7 6.75 9.5C6.75 9.25 6.77083 9 6.8125 8.75C6.85417 8.5 6.91667 8.275 7 8.075L4.575 5.65Z" fill="#818287"/>
</svg>
