<svg width="24" height="24" viewBox="0 0 24 24" fill="none" xmlns="http://www.w3.org/2000/svg">
<path fill-rule="evenodd" clip-rule="evenodd" d="M16.9 17.075H15.4V13.375H16.9V17.075Z" fill="#224DFF"/>
<path d="M7.1 17.075H8.6V13.6375V10.2H7.1V17.075Z" fill="#224DFF"/>
<path fill-rule="evenodd" clip-rule="evenodd" d="M4.5 21C4.1 21 3.75 20.85 3.45 20.55C3.15 20.25 3 19.9 3 19.5V4.5C3 4.1 3.15 3.75 3.45 3.45C3.75 3.15 4.1 3 4.5 3H19.5C19.9 3 20.25 3.15 20.55 3.45C20.85 3.75 21 4.1 21 4.5V19.5C21 19.9 20.85 20.25 20.55 20.55C20.25 20.85 19.9 21 19.5 21H4.5ZM19.5 19.5H4.5V4.5H19.5V19.5Z" fill="#3E414D"/>
<path d="M11.25 17.075H12.75V6.925H11.25V17.075Z" fill="#224DFF"/>
</svg>
