<svg width="18" height="8" viewBox="0 0 18 8" fill="none" xmlns="http://www.w3.org/2000/svg">
<path d="M13.9091 6.90909H4.5C2.69182 6.90909 1.22727 5.60727 1.22727 4C1.22727 2.39273 2.69182 1.09091 4.5 1.09091H14.7273C15.8564 1.09091 16.7727 1.90545 16.7727 2.90909C16.7727 3.91273 15.8564 4.72727 14.7273 4.72727H6.13636C5.68636 4.72727 5.31818 4.4 5.31818 4C5.31818 3.6 5.68636 3.27273 6.13636 3.27273H13.9091V2.18182H6.13636C5.00727 2.18182 4.09091 2.99636 4.09091 4C4.09091 5.00364 5.00727 5.81818 6.13636 5.81818H14.7273C16.5355 5.81818 18 4.51636 18 2.90909C18 1.30182 16.5355 0 14.7273 0H4.5C2.01273 0 0 1.78909 0 4C0 6.21091 2.01273 8 4.5 8H13.9091V6.90909Z" fill="#696A6E"/>
</svg>
