<svg width="292" height="316" viewBox="0 0 292 316" fill="none" xmlns="http://www.w3.org/2000/svg">
<path d="M215.262 15.6104L198.18 24.8819C197.555 25.1697 197.021 25.6503 196.646 26.2639C196.272 26.8775 196.072 27.597 196.072 28.3326V36.9783C196.057 44.8381 198.175 52.5297 202.163 59.0983C205.241 64.1543 209.323 70.6576 216.115 74.3675H219.175C226.738 71.8395 232.379 65.2224 235.825 59.5344C239.813 52.9655 241.931 45.2741 241.916 37.4144V28.3326C241.916 27.5979 241.717 26.8793 241.343 26.2659C240.97 25.6525 240.438 25.1713 239.814 24.8819L220.355 15.9075C219.485 15.5093 216.127 15.2123 215.262 15.6104Z" fill="#E0E0E0"/>
<path d="M214.573 15.9075L195.114 24.8819C194.489 25.1697 193.955 25.6503 193.58 26.2639C193.206 26.8775 193.006 27.597 193.006 28.3326V36.9784C193.007 44.9882 195.202 52.8178 199.316 59.4767C203.429 66.1355 209.276 71.3243 216.115 74.3864C223.672 71.8584 229.313 65.2414 232.765 59.5534C236.753 52.9778 238.871 45.2801 238.856 37.4144V28.3326C238.856 27.597 238.657 26.8775 238.282 26.2639C237.907 25.6503 237.373 25.1697 236.748 24.8819L217.289 15.9075C216.859 15.7119 216.397 15.6112 215.931 15.6112C215.465 15.6112 215.003 15.7119 214.573 15.9075Z" fill="#F5F5F5"/>
<path d="M238.792 35.0697C238.818 35.2004 238.83 35.3341 238.827 35.4679C238.827 35.7649 238.856 36.1441 238.873 36.6118C238.891 37.0795 238.92 37.7178 238.873 38.4256C238.827 39.1335 238.873 39.9424 238.768 40.8272C238.663 41.712 238.634 42.7232 238.465 43.7281C238.389 44.2463 238.33 44.7835 238.231 45.3334C238.132 45.8832 238.009 46.4394 237.898 47.0145C237.36 49.5098 236.607 51.9451 235.65 54.2888C234.666 56.621 233.494 58.8544 232.146 60.9627C231.498 61.9107 230.896 62.8587 230.254 63.6108C229.938 64.009 229.67 64.4135 229.348 64.7674L228.461 65.7849C227.906 66.4169 227.339 66.9731 226.866 67.466C226.393 67.959 225.961 68.3445 225.605 68.6542L224.84 69.3747C224.749 69.4646 224.649 69.543 224.542 69.6085C224.62 69.5036 224.708 69.4082 224.805 69.3241L225.593 68.5594C225.938 68.2371 226.358 67.8326 226.814 67.2954C227.269 66.7582 227.83 66.2652 228.367 65.5953L229.237 64.5651C229.535 64.2112 229.821 63.8067 230.125 63.4086C230.756 62.6186 231.34 61.7022 231.976 60.7542C233.299 58.6554 234.452 56.4373 235.422 54.1245C236.368 51.798 237.121 49.3847 237.67 46.9134L238.015 45.2449C238.12 44.7014 238.184 44.1642 238.266 43.6523C238.441 42.6284 238.511 41.6615 238.599 40.7767C238.687 39.8919 238.698 39.0955 238.745 38.3877C238.792 37.6799 238.786 37.0795 238.786 36.5802C238.786 36.0809 238.786 35.7333 238.786 35.4363C238.776 35.3142 238.778 35.1913 238.792 35.0697Z" fill="#E0E0E0"/>
<path d="M214.48 53.8654L203.32 44.2653L206.415 40.0499L213.902 46.49L224.834 33.2496L228.543 36.8393L214.48 53.8654Z" fill="white"/>
<path d="M267.203 62.9219H265.089V50.4779C265.089 49.0699 264.573 47.7196 263.653 46.724C262.733 45.7284 261.485 45.1691 260.184 45.1691C258.883 45.1691 257.635 45.7284 256.715 46.724C255.795 47.7196 255.278 49.0699 255.278 50.4779V62.9219H253.164V50.4779C253.164 48.4665 253.902 46.5374 255.217 45.1152C256.531 43.6929 258.313 42.8939 260.172 42.8939C262.031 42.8939 263.813 43.6929 265.127 45.1152C266.442 46.5374 267.18 48.4665 267.18 50.4779L267.203 62.9219Z" fill="#EBEBEB"/>
<path d="M267.84 54.4784H252.522C251.528 54.4784 250.723 55.3499 250.723 56.425V68.5783C250.723 69.6534 251.528 70.5249 252.522 70.5249H267.84C268.833 70.5249 269.639 69.6534 269.639 68.5783V56.425C269.639 55.3499 268.833 54.4784 267.84 54.4784Z" fill="#EBEBEB"/>
<path d="M261.632 62.9156C261.82 62.709 261.968 62.4641 262.069 62.1951C262.169 61.9261 262.219 61.6383 262.216 61.3483C262.219 60.9278 262.113 60.5148 261.91 60.1559C261.708 59.797 261.417 59.5066 261.07 59.3173C260.723 59.128 260.334 59.0474 259.947 59.0847C259.559 59.1219 259.19 59.2755 258.879 59.528C258.568 59.7806 258.329 60.1221 258.188 60.514C258.047 60.9059 258.01 61.3326 258.082 61.746C258.153 62.1594 258.33 62.543 258.592 62.8535C258.854 63.164 259.191 63.3891 259.565 63.5034L259.121 65.6396H261.101L260.703 63.5034C261.049 63.3965 261.363 63.194 261.614 62.9156" fill="#FAFAFA"/>
<path d="M27.1151 244.546C24.847 243.01 22.2839 242.057 19.6224 241.759C18.396 241.62 17.0587 241.658 16.0775 242.461C15.9636 242.531 15.8693 242.633 15.8046 242.757C15.7399 242.88 15.707 243.02 15.7096 243.162C15.7694 243.362 15.8938 243.533 16.06 243.642C17.6509 244.871 19.5222 245.604 21.471 245.764C23.4198 245.923 25.3717 245.502 27.1151 244.546Z" fill="#E0E0E0"/>
<path d="M26.9225 244.319C25.1877 242.938 23.5677 241.397 22.0811 239.711C20.5914 238.013 19.5454 235.917 19.0501 233.638C18.9515 233.3 18.9218 232.943 18.9632 232.592C19.0045 232.24 19.1159 231.903 19.2896 231.603C23.144 234.864 26.1749 239.086 26.9225 244.319Z" fill="#E0E0E0"/>
<path d="M27.0743 244.515C26.7188 242.233 26.7505 239.901 27.1677 237.632C27.5966 235.345 28.8033 233.315 30.5491 231.944C31.2148 233.631 30.9287 235.578 30.4615 237.335C29.7354 240.065 28.601 242.649 27.1035 244.982" fill="#E0E0E0"/>
<path d="M30.8585 251.852C28.5885 252.249 26.4886 253.4 24.8492 255.145C23.1248 256.84 21.9239 259.069 21.4094 261.528C23.6637 261.376 25.5733 259.632 26.9574 257.736C28.3415 255.84 29.2934 253.697 30.8293 251.896" fill="#E0E0E0"/>
<path d="M31.682 253.021C30.7779 250.539 30.4609 247.851 30.7597 245.202C31.0585 242.554 31.9637 240.027 33.3931 237.853C34.7012 242.909 34.2165 248.597 31.682 253.021Z" fill="#E0E0E0"/>
<path d="M36.6752 259.461C34.5764 259.324 32.4865 259.856 30.6645 260.992C28.8426 262.127 27.3688 263.817 26.426 265.851C26.3034 266.123 26.1866 266.483 26.3618 266.717C26.4496 266.81 26.5574 266.879 26.6756 266.916C26.7937 266.954 26.9187 266.959 27.0392 266.932C29.0598 266.793 30.8469 265.478 32.3244 263.98C33.8019 262.482 35.0926 260.751 36.7219 259.455" fill="#E0E0E0"/>
<path d="M36.5175 259.12C35.4415 255.371 35.3746 251.368 36.3248 247.58C36.7044 246.095 37.3351 244.533 38.6024 243.838C38.6532 243.801 38.7105 243.776 38.7709 243.764C38.8312 243.752 38.8931 243.754 38.9528 243.769C39.0553 243.828 39.1327 243.927 39.1689 244.047C39.5972 245.084 39.7818 246.219 39.7061 247.352C39.6313 248.483 39.4711 249.605 39.2273 250.708C38.8301 252.756 38.6433 254.955 37.5745 256.725C37.3306 257.15 37.1102 257.592 36.9146 258.046C36.7219 258.494 36.7219 258.678 36.5409 259.006" fill="#E0E0E0"/>
<path d="M49.7451 261.244C49.3005 259.137 49.2859 256.951 49.7025 254.838C50.1191 252.724 50.9568 250.735 52.1571 249.008C52.3264 248.762 52.5542 248.502 52.8403 248.528C53.2725 248.572 53.3834 249.198 53.3659 249.665C53.1868 253.814 51.932 257.824 49.7451 261.237" fill="#E0E0E0"/>
<path d="M50.9365 262.128C53.2508 262.719 55.6559 262.76 57.9861 262.247C60.3162 261.734 62.5157 260.68 64.4328 259.158C62.1747 257.929 59.5922 257.587 57.1269 258.191C54.6858 258.823 52.4549 259.973 50.9365 262.128Z" fill="#E0E0E0"/>
<path d="M51.9409 259.442C54.4813 254.968 59.346 252.048 64.2049 251.776C63.6209 253.912 62.0266 255.568 60.1987 256.573C58.3249 257.483 56.3439 258.108 54.312 258.431C53.5294 258.595 52.4548 258.779 51.976 259.442" fill="#E0E0E0"/>
<path d="M49.9962 246.404C50.7665 243.883 51.2911 241.282 51.5613 238.643C51.8328 235.988 51.3348 233.307 50.1364 230.971C47.7653 235.932 47.5259 241.715 49.9261 246.676" fill="#E0E0E0"/>
<path d="M57.9736 242.056C60.7476 236.608 66.4008 232.254 72.1181 231.641C69.9106 237.588 63.8954 242.182 57.9736 242.056Z" fill="#E0E0E0"/>
<path d="M56.2334 243.111C60.3623 243.794 63.8838 246.651 67.744 248.382C68.5547 248.802 69.4522 248.987 70.3487 248.92C70.7652 248.914 71.1701 248.77 71.5087 248.507C71.8474 248.245 72.1037 247.877 72.243 247.452C72.3824 247.027 72.3981 246.566 72.2881 246.131C72.178 245.697 71.9475 245.309 71.6276 245.02C71.0812 244.466 70.4379 244.037 69.7355 243.756C65.5307 241.86 61.0164 241.816 56.5896 242.966" fill="#E0E0E0"/>
<path d="M53.839 246.246C54.7734 246.537 55.0946 247.061 55.8363 247.744C58.3699 250.074 61.3686 251.735 64.5963 252.598C64.9292 252.686 65.3672 252.724 65.5365 252.402C65.7059 252.08 65.4956 251.77 65.3088 251.517C63.9109 249.737 62.0951 248.399 60.0528 247.643C58.0379 246.828 56.2918 245.848 53.8857 246.063" fill="#E0E0E0"/>
<path d="M51.1409 227.305C52.8358 228.996 54.8389 230.285 57.0214 231.088C59.2039 231.891 61.5175 232.191 63.8137 231.969C64.027 231.977 64.2352 231.898 64.3977 231.748C64.7189 231.369 64.3334 230.787 63.9655 230.484C60.2396 227.324 55.7253 226.06 51.1525 227.324" fill="#E0E0E0"/>
<path d="M54.3412 226.035C56.5844 224.25 59.1858 223.064 61.9333 222.574C64.6807 222.084 67.4962 222.304 70.1501 223.216C68.0808 225.289 65.4274 226.549 62.6165 226.793C59.8383 227.07 57.0369 226.813 54.3412 226.035Z" fill="#E0E0E0"/>
<path d="M53.068 217.332C52.706 213.306 52.9396 210.134 52.6826 206.089C52.6826 205.767 52.6008 205.381 52.3205 205.261C51.9292 205.103 51.608 205.615 51.4796 206.045C50.9375 207.919 50.7984 209.902 51.0727 211.843C51.3469 213.783 52.0274 215.631 53.0622 217.244" fill="#E0E0E0"/>
<path d="M52.7994 217.775C55.2385 216.082 57.341 213.879 58.984 211.297C60.1987 209.495 61.2266 207.34 60.9521 205.128C60.0953 205.153 59.2538 205.379 58.4863 205.792C57.7187 206.204 57.0435 206.793 56.5078 207.517C55.4472 208.974 54.6758 210.652 54.2419 212.447C53.7514 214.216 53.4068 216.037 52.8228 217.775" fill="#E0E0E0"/>
<path d="M58.8555 215.954C64.4091 213.737 69.5515 210.462 74.0395 206.285C72.2291 205.495 70.1559 205.969 68.3455 206.759C64.2356 208.443 60.84 211.702 58.803 215.917" fill="#E0E0E0"/>
<path d="M54.5048 219.98C57.295 220.409 60.1262 220.424 62.9202 220.025C65.6475 219.532 68.2288 218.356 70.775 217.2C70.9978 217.127 71.1887 216.97 71.3123 216.757C71.3507 216.629 71.3529 216.491 71.3186 216.362C71.2842 216.232 71.2149 216.117 71.1196 216.03C70.9224 215.863 70.6928 215.746 70.448 215.689C67.674 214.855 64.6839 215.247 61.9566 216.239C59.359 217.202 56.8615 218.456 54.5048 219.98Z" fill="#E0E0E0"/>
<path d="M38.544 227.444C36.6343 223.273 36.792 218.407 38.4097 214.109C39.5777 216.005 39.712 218.457 39.5017 220.739C39.2915 223.02 38.6491 225.359 38.6024 227.646" fill="#E0E0E0"/>
<path d="M30.8994 223.279C28.5098 223.245 26.1398 223.751 23.9414 224.765C21.7431 225.78 19.7647 227.28 18.1332 229.17C20.5466 229.483 22.9911 228.994 25.1412 227.767C27.2698 226.544 29.2775 225.089 31.133 223.425" fill="#E0E0E0"/>
<path d="M25.7719 221.421C23.4359 221.219 21.1992 220.909 18.9567 221.649C17.8252 221.993 16.7757 222.598 15.8798 223.422C14.9838 224.245 14.2625 225.268 13.7649 226.42C15.9644 226.611 18.1708 226.159 20.1539 225.112C22.1251 224.067 24.0054 222.832 25.7719 221.421Z" fill="#E0E0E0"/>
<path d="M33.364 221.51C31.2674 220.024 29.1124 218.508 26.6713 217.888C24.2302 217.269 21.4153 217.73 19.6984 219.721C21.6723 220.985 24.0725 221.124 26.3676 221.124C28.6628 221.124 31.466 221.093 33.6268 221.921" fill="#E0E0E0"/>
<path d="M33.3756 221.63C29.7898 217.838 28.435 210.974 29.8716 205.767C32.7011 210.456 33.9395 216.063 33.3756 221.63Z" fill="#E0E0E0"/>
<path d="M43.2161 210.835C43.8935 209.129 44.3841 207.347 44.9681 205.615C45.521 203.858 46.3705 202.227 47.4734 200.805C48.5908 199.364 50.1871 198.456 51.9177 198.277C51.3649 200.903 50.3129 203.374 48.8289 205.535C47.3448 207.696 45.4611 209.499 43.2978 210.829" fill="#E0E0E0"/>
<path d="M41.464 213.085C40.3485 211.417 39.0521 209.154 37.5337 207.909C36.0153 206.664 34.0297 205.912 32.1901 206.386C33.1494 208.205 34.4868 209.757 36.0965 210.92C37.7061 212.083 39.5438 212.824 41.464 213.085Z" fill="#E0E0E0"/>
<path d="M41.8085 210.974C41.0136 208.984 40.426 206.905 40.0565 204.774C39.6896 202.618 40.0065 200.391 40.9559 198.454C42.924 202.48 43.5605 206.803 41.9312 211.006" fill="#E0E0E0"/>
<path d="M43.2568 198.448C44.3723 194.46 47.7478 191.496 51.3978 190.169C51.8486 189.968 52.3377 189.89 52.8228 189.941C53.0652 189.968 53.2947 190.073 53.4819 190.242C53.6691 190.411 53.8056 190.636 53.874 190.889C54.0083 191.566 53.4885 192.153 52.998 192.627C50.149 195.262 46.8349 197.242 43.2568 198.448Z" fill="#E0E0E0"/>
<path d="M43.2978 195.206C43.4379 192.627 43.5839 190.017 44.3607 187.578C45.1374 185.138 46.6266 182.857 48.7932 181.789C49.1611 184.386 48.1041 186.971 46.8251 189.208C45.5462 191.445 44.0044 193.556 43.2394 196.053" fill="#E0E0E0"/>
<path d="M43.216 196.975C42.2933 194.068 42.1999 190.371 40.588 187.837C39.4609 186.067 37.668 184.86 36.6928 182.983C36.1071 184.783 36.1887 186.758 36.9205 188.494C37.6527 190.211 38.6612 191.773 39.8989 193.108C41.0669 194.485 42.1064 195.522 43.216 196.975Z" fill="#E0E0E0"/>
<path d="M43.2569 282.643C43.1868 282.643 43.1226 263.241 43.1167 239.307C43.1109 215.373 43.1693 195.964 43.2394 195.964C43.3095 195.964 43.3737 215.36 43.3795 239.307C43.3854 263.253 43.327 282.643 43.2569 282.643Z" fill="#E0E0E0"/>
<path d="M58.9256 224.512C58.7113 224.63 58.4862 224.723 58.254 224.79L56.3968 225.466C54.8317 226.041 52.6826 226.875 50.3524 227.912C48.0223 228.948 45.8615 229.852 44.6234 231.015C44.1217 231.46 43.722 232.025 43.4554 232.665C43.2744 233.12 43.2452 233.398 43.2218 233.398C43.1984 233.398 43.2218 233.322 43.2218 233.189C43.2515 232.998 43.2964 232.81 43.3561 232.627C43.59 231.95 43.9753 231.346 44.4774 230.87C45.2265 230.184 46.0647 229.622 46.9652 229.201C47.958 228.696 49.0618 228.171 50.2298 227.653C52.5658 226.616 54.7324 225.807 56.3151 225.276C57.1093 225.011 57.7517 224.815 58.2014 224.682C58.4373 224.601 58.6798 224.544 58.9256 224.512Z" fill="#E0E0E0"/>
<path d="M64.0648 210.861C64.01 210.941 63.9451 211.014 63.8721 211.075L63.2881 211.663L61.139 213.774L53.9908 220.663C51.1993 223.355 48.7874 225.921 47.1171 227.855C46.2762 228.822 45.6163 229.625 45.1666 230.181L44.6468 230.813C44.5925 230.892 44.5276 230.963 44.4541 231.021C44.4977 230.933 44.5506 230.85 44.6118 230.775C44.7169 230.617 44.8746 230.383 45.0907 230.099C45.517 229.517 46.1594 228.696 46.9828 227.71C49.1399 225.158 51.4207 222.732 53.8156 220.442C56.6188 217.762 59.1651 215.348 61.0163 213.616C61.9274 212.769 62.6749 212.08 63.218 211.568L63.802 211.025C63.8822 210.957 63.9707 210.902 64.0648 210.861Z" fill="#E0E0E0"/>
<path d="M50.9891 223.399C50.9132 223.361 51.4972 221.908 52.0812 220.062C52.6652 218.217 52.9397 216.669 53.0156 216.681C52.955 217.87 52.7225 219.04 52.3265 220.151C52.0756 220.939 51.7852 221.711 51.4563 222.464C51.339 222.797 51.1819 223.111 50.9891 223.399Z" fill="#E0E0E0"/>
<path d="M43.2744 235.142C43.1107 234.983 42.9656 234.802 42.8422 234.605L41.7385 233.075C40.8158 231.78 39.5368 229.991 38.1002 228.019C36.6635 226.047 35.3495 224.309 34.3918 223.039L33.288 221.548C33.1402 221.37 33.0092 221.178 32.8967 220.973C33.0672 221.124 33.2237 221.294 33.3639 221.478C33.6501 221.813 34.0589 222.312 34.5319 222.932C35.5247 224.196 36.8679 225.902 38.3046 227.861C39.7412 229.821 40.9968 231.653 41.8845 232.955C42.3342 233.587 42.6846 234.162 42.924 234.542C43.0594 234.728 43.1768 234.929 43.2744 235.142Z" fill="#E0E0E0"/>
<path d="M39.8346 230.37C39.1422 229.541 38.6488 228.541 38.398 227.457C38.1248 226.505 38.0139 225.507 38.0709 224.512H38.1877C38.1718 224.632 38.1341 224.748 38.0768 224.853C38.0768 224.853 38.0768 224.72 38.0768 224.493H38.1936C38.2482 225.462 38.4009 226.422 38.6491 227.356C38.9766 228.39 39.3728 229.398 39.8346 230.37Z" fill="#E0E0E0"/>
<path d="M35.4021 224.36C35.0914 224.107 34.7542 223.895 34.3976 223.728C33.4936 223.433 32.5417 223.351 31.6061 223.488C30.6585 223.562 29.7187 223.725 28.797 223.975C28.414 224.102 28.0239 224.204 27.629 224.278C27.97 224.05 28.3427 223.884 28.7328 223.785C29.6574 223.475 30.6116 223.28 31.5769 223.203C32.5456 223.064 33.531 223.179 34.4501 223.538C34.8458 223.685 35.1823 223.975 35.4021 224.36Z" fill="#E0E0E0"/>
<path d="M34.3509 222.869C34.3509 222.913 33.7669 222.616 32.8091 222.237C30.3133 221.317 27.6426 221.1 25.0478 221.605C24.055 221.794 23.4593 221.996 23.4418 221.952C23.5674 221.865 23.7055 221.801 23.8506 221.763C24.2325 221.618 24.6226 221.499 25.0186 221.409C26.3236 221.099 27.6634 220.997 28.9956 221.105C30.3255 221.218 31.6335 221.537 32.8792 222.053C33.2554 222.209 33.6221 222.391 33.9771 222.597C34.1139 222.666 34.2399 222.758 34.3509 222.869Z" fill="#E0E0E0"/>
<path d="M43.216 216.681C42.7588 215.302 42.3843 213.891 42.0948 212.459C41.7175 211.051 41.4249 209.618 41.2188 208.168C41.6765 209.548 42.0529 210.958 42.3459 212.39C42.7197 213.799 43.0103 215.232 43.216 216.681Z" fill="#E0E0E0"/>
<path d="M43.3095 216.681C42.9505 215.808 42.5348 214.963 42.0656 214.153C41.5397 213.387 40.9232 212.698 40.2318 212.106C40.4925 212.178 40.7343 212.314 40.9385 212.504C41.4589 212.913 41.9112 213.415 42.2758 213.989C42.8338 214.772 43.1904 215.701 43.3095 216.681Z" fill="#E0E0E0"/>
<path d="M43.2569 272.297C43.2569 272.297 43.1751 271.83 42.9707 271.033C42.6844 269.874 42.2932 268.747 41.8027 267.671C40.076 264.161 37.9406 260.905 35.4488 257.982C34.0297 256.225 32.6514 254.57 31.4834 252.983C30.432 251.591 29.4831 250.112 28.6452 248.559C28.0817 247.51 27.603 246.411 27.2144 245.273C27.0801 244.868 26.9866 244.552 26.9341 244.338C26.8999 244.228 26.8745 244.116 26.8582 244.003C26.8582 244.003 27.01 244.445 27.3078 245.235C27.7322 246.348 28.2319 247.425 28.8029 248.458C29.6586 249.986 30.6149 251.446 31.6645 252.825C32.8325 254.393 34.2224 256.036 35.6415 257.793C38.1515 260.733 40.2811 264.029 41.9721 267.589C42.4602 268.681 42.8381 269.828 43.0992 271.008C43.1684 271.329 43.221 271.654 43.2569 271.981C43.2658 272.086 43.2658 272.192 43.2569 272.297Z" fill="#E0E0E0"/>
<path d="M57.4189 254.993C57.1789 255.156 56.9314 255.306 56.6772 255.442C56.0043 255.849 55.3601 256.309 54.75 256.82C53.8462 257.576 53.0005 258.411 52.2213 259.316C51.3336 260.327 50.4226 261.503 49.4882 262.767C47.6252 265.295 45.8791 267.545 44.8162 269.333C44.2847 270.218 43.8993 270.964 43.6482 271.488C43.5282 271.767 43.3916 272.037 43.2394 272.297C43.2394 272.297 43.2394 272.215 43.3095 272.07C43.3795 271.924 43.4379 271.709 43.5547 271.438C43.8862 270.678 44.2606 269.942 44.676 269.232C46.0946 266.927 47.633 264.712 49.2838 262.596C50.2182 261.332 51.1467 260.156 52.0519 259.139C52.8484 258.238 53.7139 257.411 54.6391 256.668C55.2701 256.157 55.9425 255.708 56.648 255.328C56.8374 255.223 57.0324 255.13 57.232 255.05C57.3527 254.999 57.415 254.98 57.4189 254.993Z" fill="#E0E0E0"/>
<path d="M57.6934 260.605C57.1759 260.728 56.6509 260.81 56.1224 260.852C54.8622 260.991 53.6168 261.258 52.4023 261.648C51.2011 262.07 50.0753 262.712 49.0735 263.544C48.3085 264.176 47.9464 264.713 47.9055 264.688C47.8647 264.663 47.9639 264.53 48.1333 264.296C48.3772 263.966 48.6511 263.663 48.9509 263.392C49.9445 262.495 51.0885 261.812 52.3206 261.383C53.5502 260.986 54.8181 260.744 56.0991 260.662C56.6278 260.59 57.1614 260.571 57.6934 260.605Z" fill="#E0E0E0"/>
<path d="M48.3669 264.062C48.2851 264.012 48.9917 262.843 49.5349 261.269C50.078 259.695 50.1714 258.292 50.259 258.311C50.3089 258.612 50.3089 258.92 50.259 259.221C50.1794 259.953 50.0266 260.674 49.8035 261.37C49.5633 262.057 49.258 262.716 48.8925 263.335C48.7566 263.608 48.5789 263.854 48.3669 264.062Z" fill="#E0E0E0"/>
<path d="M62.0034 239.914C61.9272 239.976 61.8425 240.025 61.7522 240.059L61.0164 240.419C60.6894 240.571 60.2981 240.76 59.8484 241.013C59.3987 241.266 58.8848 241.519 58.3475 241.866L57.4949 242.391C57.197 242.581 56.9109 242.796 56.5897 243.023C55.959 243.434 55.3282 243.946 54.6508 244.464C53.2194 245.639 51.8688 246.926 50.6095 248.313C49.3738 249.716 48.2357 251.215 47.2048 252.8C46.7434 253.552 46.2938 254.254 45.9317 254.949C45.7506 255.29 45.5579 255.619 45.3944 255.947L44.9681 256.895C44.6644 257.489 44.4483 258.058 44.2322 258.545C44.0162 259.032 43.8526 259.461 43.7242 259.809C43.5957 260.157 43.4964 260.403 43.4146 260.618C43.3826 260.715 43.3415 260.808 43.292 260.896C43.3031 260.793 43.3287 260.693 43.3679 260.599L43.6307 259.771C43.7475 259.411 43.8935 258.968 44.0979 258.475C44.3023 257.982 44.5067 257.401 44.8046 256.801C44.9447 256.491 45.0966 256.169 45.2484 255.84C45.4002 255.511 45.593 255.208 45.7798 254.829C46.1361 254.121 46.5799 253.413 47.0354 252.655C49.0853 249.411 51.6264 246.565 54.5515 244.236C55.2348 243.718 55.8772 243.213 56.5138 242.808C56.835 242.6 57.1328 242.378 57.4306 242.176L58.3008 241.658C58.8498 241.323 59.3754 241.076 59.825 240.843C60.2052 240.637 60.5951 240.454 60.993 240.293L61.7522 239.977C61.8338 239.947 61.9179 239.926 62.0034 239.914Z" fill="#E0E0E0"/>
<path d="M50.808 248.041C50.9005 247.652 51.105 247.304 51.392 247.049C52.0828 246.398 52.9642 246.033 53.8798 246.019C54.775 246.014 55.6621 246.201 56.4903 246.568C56.8401 246.69 57.1723 246.865 57.4773 247.087C57.1198 247.014 56.7697 246.904 56.4319 246.758C55.6129 246.452 54.7522 246.296 53.8857 246.297C53.0265 246.317 52.1957 246.633 51.5146 247.2C51.2589 247.46 51.0226 247.741 50.808 248.041Z" fill="#E0E0E0"/>
<path d="M49.1202 249.912C49.4527 249.12 49.6902 248.285 49.8269 247.428C49.8742 246.561 49.8212 245.69 49.6692 244.837C49.8195 245.05 49.9197 245.299 49.9612 245.564C50.2632 246.813 50.1194 248.14 49.5582 249.28C49.3363 249.71 49.1436 249.931 49.1202 249.912Z" fill="#E0E0E0"/>
<path d="M30.8702 275.078C31.2557 282.498 33.323 290.037 36.5 297.666H50.3116C53.3426 290.113 55.2639 282.586 55.6026 275.078H30.8702Z" fill="#E0E0E0"/>
<path d="M53.366 287.08C53.366 287.156 48.8166 287.219 43.2102 287.219C37.6038 287.219 33.0544 287.156 33.0544 287.08C33.0544 287.004 37.598 286.928 43.216 286.928C48.8341 286.928 53.366 287.004 53.366 287.08Z" fill="#FAFAFA"/>
<path d="M53.0564 289.766C53.0564 289.842 48.7932 289.905 43.5372 289.905C38.2812 289.905 34.0122 289.842 34.0122 289.766C34.0122 289.69 38.2754 289.627 43.5372 289.627C48.7991 289.627 53.0564 289.69 53.0564 289.766Z" fill="#FAFAFA"/>
<path d="M36.722 279.976C36.8933 282.266 36.8933 284.568 36.722 286.859C36.5507 284.568 36.5507 282.266 36.722 279.976Z" fill="#FAFAFA"/>
<path d="M44.1212 279.976C44.2925 282.349 44.2925 284.732 44.1212 287.105C43.9498 284.732 43.9498 282.349 44.1212 279.976Z" fill="#FAFAFA"/>
<path d="M51.0709 279.888C51.2422 282.309 51.2422 284.741 51.0709 287.162C50.8996 284.741 50.8996 282.309 51.0709 279.888Z" fill="#FAFAFA"/>
<path d="M55.1646 279.976C55.1646 280.052 49.8327 280.115 43.2568 280.115C36.681 280.115 31.3374 280.052 31.3374 279.976C31.3374 279.9 36.6752 279.837 43.2568 279.837C49.8385 279.837 55.1646 279.869 55.1646 279.976Z" fill="#FAFAFA"/>
<path d="M269.452 210.791C270.716 210.187 271.788 209.195 272.536 207.938C273.285 206.681 273.676 205.214 273.662 203.719C273.662 199.497 270.742 196.059 267.069 196.046C263.396 196.034 260.429 199.434 260.417 203.63C260.391 205.137 260.777 206.619 261.527 207.889C262.278 209.159 263.359 210.16 264.634 210.766C254.443 212.428 254.904 224.411 254.904 224.411L279.006 224.531C279.006 224.531 279.555 212.44 269.452 210.791Z" fill="#EBEBEB"/>
<path d="M161.108 36.5359C161.996 36.3472 162.814 35.8837 163.463 35.2016C164.112 34.5195 164.564 33.6481 164.764 32.6934C164.93 32.0807 164.979 31.4377 164.908 30.8038C164.837 30.1699 164.648 29.5583 164.351 29.0062C164.055 28.4542 163.657 27.9733 163.183 27.5928C162.71 27.2124 162.169 26.9404 161.595 26.7934C161.021 26.6464 160.425 26.6276 159.844 26.738C159.262 26.8484 158.708 27.0857 158.214 27.4355C157.721 27.7853 157.298 28.2403 156.972 28.7726C156.647 29.305 156.424 29.9036 156.319 30.5319C156.095 31.4901 156.138 32.499 156.443 33.4305C156.749 34.3621 157.303 35.1746 158.036 35.7649C151.303 35.1898 149.965 42.9128 149.965 42.9128L165.325 46.8502C165.325 46.8502 167.333 39.184 161.108 36.5359Z" fill="#EBEBEB"/>
<path d="M270.112 100.874C270.848 100.375 271.433 99.6537 271.795 98.7988C272.156 97.9438 272.277 96.993 272.144 96.0641C272.1 95.4491 271.94 94.8504 271.674 94.305C271.408 93.7595 271.041 93.2789 270.597 92.8928C270.153 92.5067 269.64 92.2233 269.09 92.06C268.54 91.8968 267.966 91.8573 267.401 91.9438C266.837 92.0304 266.295 92.2412 265.809 92.5633C265.323 92.8854 264.903 93.3119 264.575 93.8165C264.248 94.321 264.019 94.893 263.903 95.4969C263.788 96.1009 263.788 96.7241 263.904 97.3281C264.011 98.2685 264.375 99.1533 264.948 99.87C265.52 100.587 266.277 101.103 267.122 101.354C260.925 103.383 262.204 110.79 262.204 110.79L277.201 108.521C277.201 108.521 276.53 100.918 270.112 100.874Z" fill="#F5F5F5"/>
<path d="M29.4803 103.168L21.3802 96.1967L23.6228 93.1378L29.0598 97.8083L36.9906 88.2083L39.6828 90.8121L29.4803 103.168Z" fill="#F5F5F5"/>
<path d="M274.866 297.887C274.866 297.982 216.378 298.051 144.254 298.051C72.1299 298.051 13.6306 297.982 13.6306 297.887C13.6306 297.792 72.1007 297.723 144.254 297.723C216.407 297.723 274.866 297.798 274.866 297.887Z" fill="#263238"/>
<path d="M40.5297 113.261L22.6184 122.987C21.9686 123.294 21.416 123.799 21.0289 124.442C20.6417 125.084 20.437 125.835 20.4401 126.602V135.671C20.4195 143.921 22.6391 151.995 26.8232 158.891C30.0527 164.213 34.3334 171.013 41.4524 174.9H44.6644C52.5951 172.283 58.511 165.312 62.126 159.346C66.3118 152.451 68.5334 144.377 68.515 136.126V126.602C68.514 125.832 68.3044 125.079 67.912 124.437C67.5197 123.794 66.9618 123.29 66.3074 122.987L45.8733 113.577C44.9681 113.16 41.4641 112.844 40.5297 113.261Z" fill="#95AAFF"/>
<path opacity="0.3" d="M40.5297 113.261L22.6184 122.987C21.9686 123.294 21.416 123.799 21.0289 124.442C20.6417 125.084 20.437 125.835 20.4401 126.602V135.671C20.4195 143.921 22.6391 151.995 26.8232 158.891C30.0527 164.213 34.3334 171.013 41.4524 174.9H44.6644C52.5951 172.283 58.511 165.312 62.126 159.346C66.3118 152.451 68.5334 144.377 68.515 136.126V126.602C68.514 125.832 68.3044 125.079 67.912 124.437C67.5197 123.794 66.9618 123.29 66.3074 122.987L45.8733 113.577C44.9681 113.16 41.4641 112.844 40.5297 113.261Z" fill="black"/>
<path d="M39.8113 113.577L19.4005 122.987C18.7462 123.29 18.1883 123.794 17.7959 124.437C17.4035 125.079 17.1939 125.832 17.193 126.602V135.671C17.1935 144.071 19.4958 152.281 23.8089 159.264C28.1219 166.246 34.2519 171.688 41.4232 174.9C49.348 172.283 55.264 165.312 58.8848 159.346C63.0706 152.451 65.2922 144.377 65.2737 136.126V126.602C65.2733 125.833 65.0645 125.08 64.6732 124.438C64.2819 123.795 63.7253 123.291 63.072 122.987L42.632 113.577C42.1855 113.374 41.706 113.269 41.2217 113.269C40.7374 113.269 40.2579 113.374 39.8113 113.577Z" fill="#95AAFF"/>
<path opacity="0.3" d="M46.0767 154.712C52.9658 151.82 56.3844 143.432 53.7123 135.977C51.0402 128.521 43.2892 124.822 36.4 127.713C29.5108 130.605 26.0922 138.993 28.7644 146.449C31.4365 153.904 39.1875 157.604 46.0767 154.712Z" fill="black"/>
<path d="M41.2305 142.017C44.2978 142.017 46.7843 139.326 46.7843 136.006C46.7843 132.687 44.2978 129.996 41.2305 129.996C38.1632 129.996 35.6766 132.687 35.6766 136.006C35.6766 139.326 38.1632 142.017 41.2305 142.017Z" fill="white"/>
<path d="M31.0922 150.65C31.9854 148.628 33.395 146.924 35.1543 145.742C36.9137 144.559 38.9492 143.946 41.0202 143.976C43.1438 143.976 45.228 144.596 47.0533 145.771C48.8786 146.945 50.3775 148.631 51.392 150.65C51.392 150.65 48.1158 155.895 40.88 155.706C39.0047 155.698 37.1545 155.24 35.4621 154.366C33.7697 153.492 32.2773 152.223 31.0922 150.65Z" fill="white"/>
<path d="M54.6099 141.214C54.6033 141.136 54.6033 141.058 54.6099 140.98C54.6099 140.81 54.6099 140.582 54.5574 140.298C54.5574 140.146 54.5574 139.975 54.5574 139.792C54.5574 139.609 54.499 139.407 54.4698 139.16C54.4089 138.658 54.3152 138.162 54.1895 137.675C53.872 136.325 53.37 135.034 52.7003 133.845C51.8218 132.267 50.672 130.885 49.3131 129.775C47.6714 128.424 45.7587 127.51 43.73 127.108C41.4009 126.644 38.9996 126.862 36.7746 127.74C36.1725 127.966 35.5868 128.241 35.0226 128.561C34.4584 128.896 33.9159 129.272 33.3991 129.686C32.8733 130.114 32.3721 130.577 31.8982 131.071C31.4336 131.592 31.0006 132.145 30.6017 132.726C29.7841 133.925 29.1474 135.256 28.7154 136.67C27.8042 139.602 27.8042 142.776 28.7154 145.708C29.1449 147.123 29.7817 148.455 30.6017 149.651C31.0005 150.235 31.4336 150.79 31.8982 151.313C32.3707 151.807 32.872 152.267 33.3991 152.691C34.413 153.528 35.5422 154.187 36.7454 154.644C38.9704 155.522 41.3717 155.74 43.7008 155.276C45.5506 154.899 47.3058 154.104 48.8517 152.942C50.3975 151.779 51.6991 150.277 52.6711 148.533C53.3334 147.351 53.8275 146.069 54.1369 144.728C54.2621 144.238 54.3558 143.74 54.4172 143.237C54.4172 143.022 54.4873 142.819 54.5048 142.605C54.5223 142.39 54.5048 142.251 54.5048 142.099L54.5574 141.41C54.5514 141.332 54.5514 141.254 54.5574 141.176C54.5637 141.254 54.5637 141.332 54.5574 141.41C54.5574 141.587 54.5574 141.815 54.5574 142.105C54.5574 142.257 54.5574 142.428 54.5574 142.611C54.5574 142.794 54.5107 143.003 54.4815 143.243C54.4348 143.753 54.3488 144.258 54.2245 144.753C53.9282 146.122 53.4376 147.434 52.7703 148.64C51.1833 151.572 48.6973 153.81 45.7441 154.964C42.791 156.119 39.5574 156.118 36.6052 154.96C36.0041 154.726 35.4187 154.448 34.8532 154.126C34.2783 153.776 33.7279 153.381 33.2063 152.944C32.6631 152.513 32.148 152.042 31.6646 151.535C31.1997 151.009 30.7666 150.452 30.3681 149.866C29.5274 148.643 28.8728 147.281 28.4292 145.834C27.9857 144.34 27.7514 142.783 27.7343 141.214C27.7505 139.645 27.9868 138.087 28.4351 136.594C28.8743 135.146 29.527 133.784 30.3681 132.562C30.7787 131.968 31.2234 131.402 31.6996 130.868C32.1813 130.361 32.6944 129.89 33.2355 129.459C33.7534 129.031 34.2978 128.643 34.8649 128.296C35.4302 127.972 36.0156 127.691 36.6169 127.455C38.8879 126.565 41.3375 126.347 43.7125 126.823C45.5964 127.215 47.3812 128.038 48.9473 129.237C50.5135 130.436 51.8249 131.984 52.7937 133.775C53.4611 134.984 53.9517 136.297 54.2479 137.669C54.3721 138.161 54.4581 138.664 54.5048 139.173C54.5048 139.394 54.5691 139.596 54.5807 139.805V140.317C54.5807 140.607 54.5807 140.835 54.5807 141.006C54.5958 141.074 54.6056 141.144 54.6099 141.214Z" fill="#263238"/>
<path d="M65.2036 133.668C65.2309 133.807 65.2446 133.949 65.2445 134.091C65.2445 134.395 65.2445 134.793 65.2912 135.292C65.338 135.792 65.338 136.449 65.2912 137.188C65.2912 137.561 65.2912 137.953 65.2912 138.376C65.2912 138.8 65.2912 139.242 65.2153 139.704C65.1335 140.633 65.0752 141.657 64.8941 142.744C64.8182 143.287 64.7539 143.85 64.6488 144.425C64.5437 145 64.4152 145.588 64.2984 146.194C63.7368 148.807 62.9549 151.358 61.9624 153.816C60.9368 156.262 59.7114 158.603 58.3008 160.812C57.6233 161.805 56.9984 162.765 56.321 163.593C55.994 164.01 55.6903 164.434 55.3691 164.807L54.4405 165.868C53.8565 166.57 53.2725 167.132 52.7703 167.632C52.35 168.079 51.9075 168.501 51.4446 168.896L50.5803 169.654C50.4855 169.746 50.3817 169.827 50.2708 169.894C50.3538 169.788 50.4457 169.691 50.5452 169.604L51.3687 168.801C51.7366 168.46 52.1746 168.036 52.6535 167.537C53.1324 167.038 53.7163 166.45 54.2828 165.748L55.1939 164.674C55.5092 164.301 55.7779 163.878 56.1283 163.461C56.7882 162.633 57.4014 161.672 58.073 160.673C59.4592 158.473 60.6667 156.147 61.6821 153.721C62.669 151.274 63.4508 148.736 64.0181 146.137L64.3802 144.38C64.4853 143.812 64.5554 143.249 64.643 142.712C64.8299 141.638 64.9 140.62 64.9934 139.697C65.0459 139.236 65.081 138.794 65.0927 138.376L65.1452 137.195C65.1978 136.455 65.1861 135.817 65.1861 135.299C65.1861 134.78 65.1861 134.407 65.1861 134.098C65.182 133.954 65.1878 133.811 65.2036 133.668Z" fill="#263238"/>
<path d="M207.209 297.887H69.1163C68.2116 297.87 67.3187 297.661 66.4888 297.271C65.6589 296.881 64.9081 296.318 64.2795 295.613C63.6509 294.909 63.1567 294.077 62.8252 293.166C62.4938 292.255 62.3315 291.282 62.3478 290.303V61.8855C62.3315 60.9064 62.4938 59.9334 62.8252 59.0223C63.1567 58.1111 63.6509 57.2795 64.2795 56.5752C64.9081 55.8708 65.6589 55.3075 66.4888 54.9173C67.3187 54.5272 68.2116 54.3179 69.1163 54.3015H207.209C208.113 54.3179 209.006 54.5272 209.836 54.9174C210.665 55.3077 211.416 55.8711 212.044 56.5756C212.672 57.28 213.166 58.1116 213.496 59.0227C213.827 59.9339 213.989 60.9067 213.972 61.8855V290.316C213.987 291.293 213.825 292.265 213.493 293.174C213.161 294.084 212.668 294.914 212.04 295.617C211.412 296.32 210.662 296.883 209.833 297.272C209.004 297.662 208.112 297.87 207.209 297.887Z" fill="#263238"/>
<path d="M140.808 286.808C140.83 288.188 140.472 289.543 139.78 290.702C139.088 291.861 138.092 292.771 136.92 293.316C135.749 293.86 134.454 294.015 133.2 293.761C131.947 293.506 130.792 292.854 129.882 291.886C128.973 290.919 128.35 289.681 128.093 288.329C127.836 286.977 127.957 285.573 128.439 284.296C128.922 283.019 129.745 281.926 130.804 281.156C131.863 280.387 133.109 279.976 134.384 279.976C136.073 279.961 137.698 280.672 138.903 281.953C140.107 283.234 140.793 284.98 140.808 286.808Z" fill="#455A64"/>
<path d="M153.697 67.1816H122.745C122.457 67.1767 122.172 67.1103 121.907 66.9863C121.643 66.8623 121.403 66.6831 121.203 66.4589C121.002 66.2347 120.844 65.9699 120.738 65.6797C120.632 65.3894 120.58 65.0794 120.584 64.7674C120.575 64.1365 120.797 63.5274 121.202 63.0736C121.607 62.6198 122.162 62.3584 122.745 62.3468H153.697C154.28 62.3584 154.835 62.6198 155.24 63.0736C155.645 63.5274 155.867 64.1365 155.858 64.7674C155.863 65.0794 155.81 65.3894 155.704 65.6797C155.598 65.9699 155.44 66.2347 155.24 66.4589C155.039 66.6831 154.799 66.8623 154.535 66.9863C154.27 67.1103 153.985 67.1767 153.697 67.1816Z" fill="#455A64"/>
<path d="M209.066 71.6877H67.0023V275.103H209.066V71.6877Z" fill="white"/>
<path d="M209.066 71.6877H203.004V275.103H209.066V71.6877Z" fill="#F5F5F5"/>
<path d="M206.029 144.772C205.528 144.771 205.049 144.554 204.695 144.17C204.341 143.786 204.143 143.267 204.143 142.725V97.7325C204.143 97.1905 204.341 96.6706 204.695 96.2868C205.049 95.903 205.528 95.6865 206.029 95.6848C206.531 95.6848 207.012 95.9006 207.367 96.2846C207.722 96.6686 207.921 97.1894 207.921 97.7325V142.725C207.921 143.268 207.722 143.788 207.367 144.173C207.012 144.557 206.531 144.772 206.029 144.772Z" fill="#E0E0E0"/>
<path d="M190.536 117.982H85.7896C84.9903 117.982 84.2239 117.638 83.6587 117.027C83.0936 116.415 82.7761 115.586 82.7761 114.721C82.7761 113.856 83.0936 113.026 83.6587 112.415C84.2239 111.803 84.9903 111.46 85.7896 111.46H190.536C191.335 111.46 192.101 111.803 192.667 112.415C193.232 113.026 193.549 113.856 193.549 114.721C193.549 115.586 193.232 116.415 192.667 117.027C192.101 117.638 191.335 117.982 190.536 117.982Z" fill="#E0E0E0"/>
<path d="M174.423 94.168H108.531C107.731 94.168 106.965 93.8244 106.4 93.2128C105.835 92.6013 105.517 91.7718 105.517 90.9069C105.517 90.042 105.835 89.2125 106.4 88.6009C106.965 87.9893 107.731 87.6458 108.531 87.6458H174.423C175.222 87.6458 175.989 87.9893 176.554 88.6009C177.119 89.2125 177.437 90.042 177.437 90.9069C177.437 91.7718 177.119 92.6013 176.554 93.2128C175.989 93.8244 175.222 94.168 174.423 94.168Z" fill="#95AAFF"/>
<path d="M175.661 131.108H100.664C99.8649 131.108 99.0984 130.765 98.5332 130.153C97.9681 129.542 97.6506 128.712 97.6506 127.847C97.6506 126.982 97.9681 126.153 98.5332 125.541C99.0984 124.93 99.8649 124.586 100.664 124.586H175.661C176.057 124.586 176.449 124.671 176.815 124.834C177.18 124.998 177.512 125.239 177.792 125.541C178.072 125.844 178.294 126.204 178.445 126.599C178.597 126.995 178.675 127.419 178.675 127.847C178.675 128.276 178.597 128.7 178.445 129.095C178.294 129.491 178.072 129.85 177.792 130.153C177.512 130.456 177.18 130.696 176.815 130.86C176.449 131.024 176.057 131.108 175.661 131.108Z" fill="#E0E0E0"/>
<path d="M141.801 188.336H84.096C83.2967 188.336 82.5303 187.992 81.9651 187.381C81.4 186.769 81.0825 185.94 81.0825 185.075C81.0825 184.647 81.1605 184.223 81.3119 183.827C81.4633 183.431 81.6853 183.072 81.9651 182.769C82.245 182.466 82.5772 182.226 82.9428 182.062C83.3084 181.898 83.7002 181.814 84.096 181.814H141.801C142.197 181.814 142.589 181.898 142.954 182.062C143.32 182.226 143.652 182.466 143.932 182.769C144.212 183.072 144.434 183.431 144.585 183.827C144.737 184.223 144.814 184.647 144.814 185.075C144.814 185.94 144.497 186.769 143.932 187.381C143.367 187.992 142.6 188.336 141.801 188.336Z" fill="#E0E0E0"/>
<path d="M188.842 174.666H84.096C83.2967 174.666 82.5303 174.322 81.9651 173.711C81.4 173.099 81.0825 172.27 81.0825 171.405C81.0825 170.977 81.1605 170.553 81.312 170.158C81.4635 169.762 81.6856 169.403 81.9655 169.101C82.2454 168.799 82.5776 168.559 82.9432 168.396C83.3088 168.233 83.7005 168.149 84.096 168.15H188.842C189.238 168.149 189.629 168.233 189.995 168.396C190.361 168.559 190.693 168.799 190.973 169.101C191.253 169.403 191.475 169.762 191.626 170.158C191.778 170.553 191.856 170.977 191.856 171.405C191.856 171.833 191.778 172.257 191.626 172.653C191.475 173.048 191.253 173.408 190.973 173.711C190.693 174.013 190.361 174.254 189.995 174.418C189.63 174.581 189.238 174.666 188.842 174.666Z" fill="#E0E0E0"/>
<path d="M188.842 212.131H97.16C95.4958 212.131 94.1466 213.591 94.1466 215.392C94.1466 217.193 95.4958 218.653 97.16 218.653H188.842C190.506 218.653 191.856 217.193 191.856 215.392C191.856 213.591 190.506 212.131 188.842 212.131Z" fill="#E0E0E0"/>
<path d="M188.842 232.576H84.096C83.2967 232.576 82.5303 232.232 81.9651 231.621C81.4 231.009 81.0825 230.18 81.0825 229.315C81.0856 228.452 81.4045 227.626 81.9693 227.017C82.5341 226.408 83.2988 226.066 84.096 226.066H188.842C189.238 226.066 189.63 226.151 189.995 226.315C190.361 226.479 190.693 226.719 190.973 227.022C191.253 227.324 191.475 227.684 191.626 228.08C191.778 228.475 191.856 228.899 191.856 229.328C191.853 230.19 191.534 231.016 190.969 231.625C190.404 232.234 189.639 232.576 188.842 232.576Z" fill="#E0E0E0"/>
<path d="M188.842 246.745H84.096C83.2967 246.745 82.5303 246.402 81.9651 245.79C81.4 245.179 81.0825 244.349 81.0825 243.484C81.0825 242.619 81.4 241.79 81.9651 241.178C82.5303 240.567 83.2967 240.223 84.096 240.223H188.842C189.238 240.223 189.63 240.308 189.995 240.471C190.361 240.635 190.693 240.876 190.973 241.178C191.253 241.481 191.475 241.841 191.626 242.236C191.778 242.632 191.856 243.056 191.856 243.484C191.856 244.349 191.538 245.179 190.973 245.79C190.408 246.402 189.641 246.745 188.842 246.745Z" fill="#E0E0E0"/>
<path d="M88.8088 215.392C88.8088 216.062 88.6251 216.717 88.2809 217.275C87.9367 217.832 87.4474 218.266 86.8751 218.522C86.3028 218.778 85.6731 218.845 85.0658 218.714C84.4584 218.583 83.9006 218.259 83.4631 217.785C83.0256 217.311 82.7279 216.706 82.6078 216.049C82.4877 215.391 82.5505 214.71 82.7883 214.091C83.0261 213.472 83.4282 212.944 83.9438 212.572C84.4593 212.201 85.0651 212.003 85.6844 212.004C86.5136 212.006 87.3083 212.364 87.8941 212.999C88.4798 213.634 88.8088 214.495 88.8088 215.392Z" fill="#95AAFF"/>
<path d="M188.842 161.931H97.1542C96.355 161.931 95.5885 161.587 95.0234 160.976C94.4582 160.364 94.1407 159.535 94.1407 158.67C94.1407 157.805 94.4582 156.976 95.0234 156.364C95.5885 155.752 96.355 155.409 97.1542 155.409H188.842C189.238 155.409 189.63 155.493 189.995 155.657C190.361 155.821 190.693 156.061 190.973 156.364C191.253 156.667 191.475 157.026 191.626 157.422C191.778 157.818 191.856 158.242 191.856 158.67C191.856 159.098 191.778 159.522 191.626 159.918C191.475 160.314 191.253 160.673 190.973 160.976C190.693 161.279 190.361 161.519 189.995 161.683C189.63 161.847 189.238 161.931 188.842 161.931Z" fill="#E0E0E0"/>
<path d="M85.6844 162.057C87.4132 162.057 88.8147 160.541 88.8147 158.67C88.8147 156.799 87.4132 155.282 85.6844 155.282C83.9557 155.282 82.5542 156.799 82.5542 158.67C82.5542 160.541 83.9557 162.057 85.6844 162.057Z" fill="#95AAFF"/>
<path d="M185.916 267.481H162.41C161.137 267.481 159.916 266.934 159.016 265.96C158.116 264.986 157.61 263.664 157.61 262.286C157.61 260.909 158.116 259.587 159.016 258.613C159.916 257.639 161.137 257.091 162.41 257.091H185.916C187.19 257.091 188.411 257.639 189.311 258.613C190.211 259.587 190.717 260.909 190.717 262.286C190.717 263.664 190.211 264.986 189.311 265.96C188.411 266.934 187.19 267.481 185.916 267.481Z" fill="#95AAFF"/>
<path d="M64.8241 22.3412L40.4596 35.5689C39.568 35.9791 38.8076 36.6639 38.2728 37.5382C37.7381 38.4124 37.4526 39.4375 37.452 40.4859V52.8225C37.4232 64.0501 40.4451 75.039 46.1419 84.4225C50.5336 91.64 56.3502 100.892 66.0388 106.176H70.4071C81.1877 102.618 89.2353 93.1315 94.1584 85.0229C99.8552 75.6394 102.877 64.6505 102.848 53.4229V40.4859C102.85 39.4403 102.568 38.4173 102.037 37.5433C101.507 36.6694 100.751 35.983 99.8641 35.5689L72.089 22.752C70.8509 22.2021 66.0621 21.7724 64.8241 22.3412Z" fill="#95AAFF"/>
<path opacity="0.3" d="M64.8241 22.3412L40.4596 35.5689C39.568 35.9791 38.8076 36.6639 38.2728 37.5382C37.7381 38.4124 37.4526 39.4375 37.452 40.4859V52.8225C37.4232 64.0501 40.4451 75.039 46.1419 84.4225C50.5336 91.64 56.3502 100.892 66.0388 106.176H70.4071C81.1877 102.618 89.2353 93.1315 94.1584 85.0229C99.8552 75.6394 102.877 64.6505 102.848 53.4229V40.4859C102.85 39.4403 102.568 38.4173 102.037 37.5433C101.507 36.6694 100.751 35.983 99.8641 35.5689L72.089 22.752C70.8509 22.2021 66.0621 21.7724 64.8241 22.3412Z" fill="black"/>
<path d="M63.8429 22.752L36.0854 35.569C35.1945 35.9794 34.4348 36.6645 33.9011 37.5388C33.3673 38.4131 33.083 39.438 33.0836 40.4859V52.8226C33.085 64.2458 36.2168 75.4121 42.0828 84.909C47.9489 94.4059 56.2856 101.807 66.0387 106.176C76.8194 102.618 84.8669 93.1315 89.7842 85.023C95.4835 75.6407 98.5057 64.6509 98.4741 53.423V40.4859C98.4747 39.438 98.1904 38.4131 97.6567 37.5388C97.1229 36.6645 96.3633 35.9794 95.4723 35.569L67.744 22.752C67.1276 22.4662 66.464 22.3188 65.7935 22.3188C65.1229 22.3188 64.4593 22.4662 63.8429 22.752Z" fill="#95AAFF"/>
<path d="M98.3865 50.0986C98.3937 50.1468 98.3937 50.1959 98.3865 50.244C98.3865 50.3578 98.3865 50.4968 98.3865 50.6674C98.3865 51.0719 98.4157 51.6154 98.4391 52.3043C98.4625 52.9932 98.4975 53.878 98.4391 54.8892C98.4391 55.3948 98.4391 55.932 98.3924 56.5008C98.3924 56.7915 98.3924 57.0822 98.3924 57.3856C98.3924 57.689 98.3398 58.0176 98.3106 58.3146C98.1938 59.5786 98.1179 60.969 97.8726 62.4416C97.7617 63.1747 97.6741 63.9458 97.5339 64.7231C97.3937 65.5005 97.2185 66.3031 97.055 67.1247C96.2837 70.6771 95.2104 74.1447 93.8489 77.4832C92.4575 80.8064 90.7964 83.9895 88.8849 86.9948C87.9621 88.3473 87.1329 89.6555 86.1985 90.7868C85.7488 91.3556 85.34 91.9307 84.902 92.4363L83.6405 93.8899C82.858 94.8379 82.0521 95.59 81.3805 96.2915C81.0359 96.6328 80.7264 96.9614 80.4285 97.2458L79.6109 97.96L78.4429 98.9965L78.1334 99.2619C78.0633 99.3188 78.0225 99.3441 78.0225 99.3378C78.0225 99.3314 78.0225 99.2998 78.1101 99.2303L78.4021 98.9459L79.5292 97.8652L80.3526 97.0878C80.6505 96.8034 80.9366 96.4558 81.287 96.1146C81.9469 95.4067 82.7353 94.6483 83.5062 93.694L84.7501 92.2278C85.1823 91.7222 85.5853 91.147 86.0233 90.5782C86.9285 89.4533 87.7753 88.145 88.6746 86.7862C90.5674 83.7873 92.2147 80.6152 93.5977 77.3062C94.9475 73.9846 96.0204 70.5391 96.8039 67.011C96.9733 66.1957 97.1309 65.3994 97.2945 64.6283C97.458 63.8573 97.5281 63.0862 97.6449 62.3531C97.9018 60.8869 97.9894 59.5028 98.1179 58.2451C98.1529 57.9354 98.1821 57.6131 98.2113 57.3287C98.2405 57.0443 98.2113 56.7346 98.2464 56.4502C98.2697 55.8814 98.2931 55.3442 98.3165 54.8386C98.3807 53.8338 98.3632 52.9426 98.3632 52.2601V50.6738V50.244C98.3621 50.1944 98.37 50.145 98.3865 50.0986Z" fill="#263238"/>
<path d="M76.7726 66.676H73.8117V49.2391C73.7596 47.303 73.0122 45.465 71.7283 44.1155C70.4444 42.7659 68.725 42.011 66.9351 42.011C65.1453 42.011 63.4259 42.7659 62.142 44.1155C60.858 45.465 60.1107 47.303 60.0585 49.2391V66.676H57.0977V49.2391C57.1602 46.4605 58.2241 43.8185 60.0622 41.8772C61.9003 39.936 64.3668 38.8493 66.9351 38.8493C69.5035 38.8493 71.97 39.936 73.8081 41.8772C75.6461 43.8185 76.7101 46.4605 76.7726 49.2391V66.676Z" fill="#F5F5F5"/>
<path d="M76.8018 54.8449H57.0743C55.2004 54.8449 53.6813 56.4889 53.6813 58.5168V73.6596C53.6813 75.6875 55.2004 77.3315 57.0743 77.3315H76.8018C78.6758 77.3315 80.1949 75.6875 80.1949 73.6596V58.5168C80.1949 56.4889 78.6758 54.8449 76.8018 54.8449Z" fill="white"/>
<path d="M76.8019 77.3315C77.0988 77.2975 77.3934 77.2426 77.6837 77.1672C78.3912 76.9462 79.0124 76.4806 79.4522 75.8414C79.8919 75.2023 80.1262 74.4248 80.119 73.628C80.119 72.8885 80.119 72.0859 80.119 71.22C80.119 69.4947 80.119 67.5292 80.119 65.3551C80.119 63.181 80.119 60.811 80.119 58.2577C80.0751 57.6213 79.8727 57.0097 79.5334 56.4879C79.1941 55.966 78.7304 55.5533 78.1918 55.2936C77.6173 55.0377 76.9946 54.9337 76.3756 54.9903H74.4133L57.0744 54.984C56.3455 54.9837 55.6379 55.2492 55.0657 55.7377C54.4935 56.2262 54.0902 56.9092 53.9208 57.6763C53.845 58.0582 53.8136 58.4488 53.8273 58.8391V62.3973C53.8273 65.5573 53.8273 68.5404 53.8273 71.416C53.8799 72.8443 53.6054 74.3168 54.2828 75.4418C54.5828 75.9944 55.0152 76.4489 55.5344 76.7571C56.0537 77.0653 56.6402 77.2157 57.232 77.1924H63.802L73.3154 77.2493H75.8967H76.5683C76.646 77.2413 76.7242 77.2413 76.8019 77.2493C76.7243 77.2588 76.6459 77.2588 76.5683 77.2493H75.8967H73.3154L63.802 77.2999H57.232C56.7495 77.3233 56.2676 77.2394 55.8162 77.0534C55.3648 76.8673 54.9535 76.5831 54.6076 76.2182C54.2617 75.8534 53.9886 75.4157 53.8052 74.9321C53.6217 74.4485 53.5319 73.9294 53.5412 73.4068V71.416C53.5412 68.5404 53.5412 65.5257 53.5412 62.3973V58.8644C53.5236 58.4402 53.557 58.0153 53.6404 57.6004C53.8302 56.7721 54.2726 56.0373 54.896 55.5148C55.5246 54.9768 56.3021 54.6829 57.1036 54.6806H74.3783H76.3405C76.9989 54.6262 77.6597 54.7432 78.2677 55.0219C78.8486 55.3025 79.348 55.7491 79.7122 56.3136C80.0764 56.8781 80.2917 57.5392 80.3351 58.2261C80.3351 60.8047 80.3351 63.1684 80.3351 65.3424C80.3351 67.5165 80.3351 69.482 80.3351 71.2074C80.3351 72.0732 80.3351 72.8759 80.3351 73.6153C80.3357 74.3074 80.1577 74.986 79.8212 75.5745C79.3633 76.3918 78.6272 76.9818 77.7713 77.2177C77.4576 77.3207 77.1287 77.3593 76.8019 77.3315Z" fill="#263238"/>
<path d="M68.9704 66.6696C69.2377 66.3812 69.4496 66.0384 69.594 65.6609C69.7383 65.2834 69.8122 64.8788 69.8114 64.4703C69.8148 63.8815 69.6661 63.3034 69.3822 62.8011C69.0982 62.2989 68.6902 61.8925 68.2042 61.6278C67.7182 61.363 67.1735 61.2505 66.6316 61.3029C66.0897 61.3553 65.572 61.5706 65.1371 61.9243C64.7021 62.2781 64.3672 62.7563 64.17 63.3051C63.9728 63.8538 63.9212 64.4513 64.021 65.0301C64.1208 65.609 64.3681 66.1461 64.7349 66.5809C65.1018 67.0158 65.5736 67.3311 66.0971 67.4912L65.4723 70.4869H68.2463L67.6623 67.4912C68.147 67.3414 68.5876 67.0584 68.9412 66.6696" fill="#95AAFF"/>
<path d="M249.847 89.2194V114.828C249.899 119.252 250.501 126.204 244.007 125.977C238.406 125.345 236.917 119.574 236.876 115.441C236.876 113.482 236.835 111.845 236.818 111.649C236.818 111.649 230.686 111.106 230.166 104.545C229.915 101.385 229.892 94.8063 229.932 88.8592C229.957 85.7791 231.053 82.822 233 80.576C234.948 78.33 237.606 76.9596 240.444 76.7374L241.028 76.6932C247.377 76.5921 249.952 82.3622 249.847 89.2194Z" fill="#FFBF9D"/>
<path d="M236.835 111.649C239.637 111.416 242.318 110.32 244.562 108.489C244.562 108.489 242.961 113.438 236.87 113.324L236.835 111.649Z" fill="#FF9A6C"/>
<path d="M240.31 91.5516C240.433 91.6843 241.134 91.0712 242.144 91.046C243.154 91.0207 243.896 91.5516 244.024 91.4125C244.153 91.2735 243.954 91.1028 243.621 90.8564C243.177 90.5333 242.65 90.3697 242.115 90.3887C241.584 90.4068 241.072 90.6083 240.655 90.9638C240.351 91.2419 240.252 91.4884 240.31 91.5516Z" fill="#263238"/>
<path d="M240.293 94.6546C240.305 94.8871 240.401 95.1051 240.561 95.2613C240.72 95.4175 240.93 95.4992 241.145 95.4889C241.25 95.4898 241.354 95.4679 241.451 95.4245C241.547 95.3811 241.635 95.3172 241.709 95.2364C241.782 95.1557 241.84 95.0598 241.879 94.9544C241.917 94.8491 241.936 94.7364 241.934 94.623C241.92 94.3923 241.824 94.1762 241.666 94.0205C241.508 93.8649 241.3 93.7818 241.087 93.7888C240.982 93.7888 240.878 93.8112 240.782 93.8548C240.685 93.8984 240.597 93.9623 240.523 94.0428C240.449 94.1233 240.391 94.2188 240.351 94.3238C240.312 94.4288 240.292 94.5412 240.293 94.6546Z" fill="#263238"/>
<path d="M237.77 99.224C237.266 99.0972 236.751 99.0378 236.234 99.0471C235.994 99.0471 235.767 99.0028 235.714 98.8322C235.675 98.5675 235.712 98.2963 235.819 98.0548C236.006 97.4228 236.193 96.7466 236.403 96.0388C237.192 93.1695 237.746 90.8184 237.641 90.7868C237.536 90.7552 236.806 93.0494 236.018 95.9187C235.831 96.6265 235.65 97.3027 235.475 97.9474C235.348 98.2695 235.329 98.6295 235.422 98.9649C235.461 99.0538 235.519 99.1316 235.591 99.1919C235.663 99.2523 235.747 99.2936 235.837 99.3125C235.973 99.3298 236.11 99.3298 236.246 99.3125C236.755 99.3487 237.267 99.319 237.77 99.224Z" fill="#263238"/>
<path d="M240.742 86.8748C240.842 87.1212 241.653 86.938 242.629 86.9885C243.604 87.0391 244.381 87.2729 244.515 87.0391C244.562 86.9316 244.41 86.7041 244.083 86.4892C243.647 86.2246 243.159 86.0753 242.66 86.0533C242.161 86.0313 241.664 86.1374 241.209 86.3628C240.865 86.5461 240.701 86.761 240.742 86.8748Z" fill="#263238"/>
<path d="M231.1 88.5179C231.211 88.7202 232 88.5179 232.963 88.4674C233.927 88.4168 234.715 88.5685 234.821 88.3599C234.861 88.2588 234.704 88.0819 234.371 87.9239C233.92 87.7293 233.436 87.643 232.952 87.6711C232.461 87.6857 231.979 87.8151 231.538 88.0503C231.211 88.2335 231.054 88.4231 231.1 88.5179Z" fill="#263238"/>
<path d="M221.92 82.9753C221.954 82.842 222.012 82.7174 222.092 82.6088C222.171 82.5003 222.269 82.41 222.381 82.3433C222.866 82.1048 223.4 82.0109 223.929 82.0715C225.546 82.0392 227.124 81.5206 228.484 80.5737C229.12 79.5858 229.829 78.6557 230.604 77.7929C232.444 75.7452 233.95 74.3485 235.515 73.6659C237.536 72.7875 240.917 72.4019 243.026 73.0339C245.134 73.6659 247.026 75.4861 247.324 77.8182C248.492 76.7375 250.279 76.7501 251.721 77.3758H251.757C253.357 78.0078 254.268 79.8279 254.741 81.5975C255.214 83.3671 255.418 85.2631 256.283 86.8495C256.464 87.1781 256.68 87.5763 256.522 87.9239C256.449 88.0497 256.342 88.1485 256.216 88.2072C256.09 88.2659 255.95 88.2817 255.815 88.2525C255.545 88.1898 255.29 88.0648 255.068 87.8859C255.249 88.3536 255.424 88.815 255.605 89.2763C255.021 89.3864 254.42 89.3453 253.853 89.1563C253.559 90.7339 253.178 92.2913 252.714 93.8204C252.116 93.7442 251.513 93.9035 251.015 94.2691C250.431 94.819 250.203 95.8491 249.263 95.4573C248.79 95.2551 248.358 94.1933 248.194 93.6561C247.138 90.1559 246.789 86.4508 247.172 82.792C246.508 82.0265 245.715 81.4046 244.836 80.9592L244.906 81.0287C243.213 80.3967 241.297 79.7647 239.691 80.6243C238.447 81.2942 237.717 82.6909 236.771 83.7843C235.915 84.8236 234.872 85.6637 233.707 86.2536C232.541 86.8435 231.277 87.171 229.991 87.216C229.903 89.0615 230.043 91.6716 229.956 93.536L228.519 90.5783C228.406 90.3733 228.303 90.1624 228.21 89.9463V89.8831C228.066 89.5221 227.904 89.1697 227.725 88.8276C227.526 89.0006 227.277 89.0908 227.022 89.082C226.767 89.0733 226.523 88.9661 226.335 88.7798C226.146 88.5936 226.026 88.3405 225.995 88.0665C225.964 87.7924 226.024 87.5154 226.166 87.2855C226.31 87.0709 226.483 86.8812 226.68 86.7231C226.471 86.9427 226.213 87.0997 225.932 87.1784C225.65 87.2571 225.354 87.2548 225.074 87.1718C224.796 87.0801 224.553 86.8916 224.384 86.6357C224.215 86.3797 224.129 86.0705 224.139 85.7561C224.163 85.5447 224.238 85.3438 224.356 85.1731C224.474 85.0025 224.63 84.8679 224.811 84.7828C224.059 84.8481 223.306 84.6676 222.65 84.2646C222.183 83.9928 221.762 83.5567 221.92 82.9753Z" fill="#263238"/>
<path d="M245.403 78.5829C245.614 78.7748 245.809 78.9863 245.987 79.2149C246.466 79.8393 246.787 80.5889 246.915 81.389C247.021 81.9377 247.074 82.4969 247.073 83.0574C247.073 83.6894 247.032 84.3214 246.985 84.9914C246.93 85.706 246.916 86.4237 246.944 87.1402C246.961 87.5227 247.006 87.9031 247.079 88.2778C247.133 88.6773 247.28 89.0555 247.505 89.3774C247.611 89.505 247.746 89.6006 247.896 89.6549C248.047 89.7092 248.208 89.7203 248.363 89.6871C248.66 89.6285 248.929 89.4637 249.129 89.2194C249.459 88.7305 249.661 88.154 249.713 87.551H249.59C249.771 88.0472 250.019 88.5115 250.326 88.9287C250.62 89.3123 251.037 89.5608 251.494 89.6239C251.708 89.6471 251.925 89.6055 252.119 89.5038C252.299 89.4016 252.448 89.2431 252.545 89.0488C252.633 88.8699 252.677 88.6698 252.673 88.4674C252.664 88.2788 252.594 88.0998 252.475 87.9618L252.411 88.025C252.772 88.4714 253.215 88.8309 253.713 89.0804C253.888 89.1647 254.022 89.2216 254.116 89.251L254.262 89.289L254.128 89.2258C254.034 89.1815 253.9 89.1246 253.736 89.0362C253.254 88.7718 252.826 88.4066 252.475 87.9618L252.411 88.025C252.51 88.1625 252.567 88.3301 252.575 88.5045C252.582 88.679 252.539 88.8515 252.451 88.9983C252.365 89.1696 252.233 89.3085 252.072 89.3964C251.89 89.4909 251.687 89.5261 251.488 89.4975C251.061 89.4445 250.669 89.2187 250.39 88.8655C250.096 88.4555 249.858 88.0022 249.683 87.5194L249.596 87.3108L249.555 87.5383C249.492 88.1154 249.291 88.6646 248.971 89.131C248.788 89.3455 248.546 89.4916 248.282 89.5481C248.15 89.5771 248.013 89.5685 247.885 89.523C247.757 89.4776 247.642 89.3969 247.552 89.289C247.342 88.9877 247.207 88.6329 247.16 88.2588C247.088 87.8923 247.042 87.5205 247.02 87.1465C246.992 86.4342 247.006 85.7207 247.061 85.0103C247.096 84.3278 247.137 83.6831 247.131 83.0701C247.128 82.5025 247.069 81.9369 246.956 81.3827C246.814 80.5675 246.473 79.8082 245.969 79.1833C245.813 78.9497 245.622 78.7466 245.403 78.5829Z" fill="#455A64"/>
<path d="M226.65 84.9598L226.703 85.0041C226.751 85.048 226.802 85.0882 226.855 85.1241C226.934 85.1946 227.021 85.256 227.112 85.3074C227.231 85.3835 227.354 85.4531 227.48 85.516C228.292 85.9145 229.183 86.0883 230.073 86.0216C231.396 85.9249 232.666 85.4157 233.728 84.5553C235.014 83.497 236.083 82.1631 236.87 80.6369C237.314 79.8469 237.67 79.0317 238.038 78.2796C238.416 77.5452 238.888 76.8728 239.44 76.2825C239.926 75.7465 240.528 75.351 241.192 75.1322C241.492 75.0422 241.804 75.0038 242.115 75.0185C242.398 75.0417 242.677 75.1054 242.944 75.2081C243.416 75.3814 243.848 75.6614 244.211 76.0297C244.486 76.3075 244.717 76.632 244.895 76.9903C245.036 77.3034 245.14 77.6347 245.204 77.9762C245.204 77.9762 245.204 77.9762 245.204 77.9067C245.204 77.8372 245.204 77.7866 245.175 77.7045C245.126 77.4483 245.048 77.1998 244.941 76.965C244.532 76.0956 243.83 75.4301 242.979 75.1069C242.698 75.0011 242.406 74.9353 242.109 74.911C241.786 74.8963 241.463 74.9347 241.151 75.0248C240.468 75.243 239.847 75.6453 239.347 76.194C238.796 76.7908 238.329 77.4723 237.962 78.2164C237.56 78.9748 237.197 79.7837 236.765 80.5737C235.983 82.0799 234.929 83.3997 233.664 84.4542C232.624 85.307 231.379 85.8182 230.078 85.9268C229.202 86.0015 228.323 85.8454 227.515 85.4717C227.217 85.3207 226.928 85.1497 226.65 84.9598Z" fill="#455A64"/>
<path d="M226.101 82.0779C226.101 82.0779 226.172 82.1474 226.318 82.2422C226.523 82.3772 226.738 82.4955 226.96 82.5961C227.29 82.7481 227.632 82.8686 227.982 82.9564C228.409 83.0652 228.845 83.1288 229.284 83.146C229.724 83.1577 230.164 83.126 230.598 83.0512C230.95 82.987 231.296 82.8897 231.632 82.7605C231.861 82.6758 232.083 82.5723 232.298 82.4508C232.378 82.4115 232.455 82.3628 232.525 82.3054C232.525 82.3054 232.181 82.4634 231.603 82.6593C231.266 82.7679 230.922 82.8524 230.575 82.9121C230.149 82.9762 229.72 83.0037 229.29 82.9943C228.86 82.9737 228.433 82.9166 228.011 82.8237C227.667 82.7417 227.329 82.6319 227.001 82.495C226.44 82.2612 226.113 82.0526 226.101 82.0779Z" fill="#455A64"/>
<path d="M231.06 91.5515C231.176 91.6842 231.877 91.0712 232.893 91.0459C233.91 91.0206 234.645 91.5515 234.774 91.4125C234.902 91.2734 234.698 91.1028 234.371 90.8563C233.924 90.5335 233.395 90.37 232.858 90.3886C232.329 90.4063 231.819 90.608 231.404 90.9638C231.095 91.2418 230.995 91.4883 231.06 91.5515Z" fill="#263238"/>
<path d="M232.093 94.6547C232.107 94.8854 232.203 95.1015 232.361 95.2572C232.519 95.4128 232.726 95.4959 232.94 95.4889C233.045 95.4898 233.149 95.4679 233.246 95.4246C233.343 95.3813 233.431 95.3175 233.505 95.2368C233.579 95.1562 233.638 95.0603 233.677 94.9549C233.716 94.8495 233.736 94.7367 233.734 94.6231C233.719 94.3917 233.622 94.1757 233.463 94.0201C233.304 93.8646 233.096 93.7817 232.882 93.7888C232.777 93.7888 232.674 93.8113 232.577 93.8549C232.481 93.8986 232.393 93.9626 232.32 94.0432C232.247 94.1237 232.189 94.2193 232.15 94.3243C232.111 94.4293 232.092 94.5416 232.093 94.6547Z" fill="#263238"/>
<path d="M249.689 94.1175C249.788 94.0606 253.777 92.4553 253.935 96.9488C254.093 101.442 249.899 100.697 249.888 100.57C249.876 100.444 249.689 94.1175 249.689 94.1175Z" fill="#FFBF9D"/>
<path d="M251.12 98.8132C251.12 98.8132 251.196 98.8638 251.319 98.9207C251.493 98.9937 251.687 98.9937 251.862 98.9207C252.123 98.7245 252.331 98.4565 252.464 98.1443C252.598 97.8321 252.652 97.4871 252.621 97.1448C252.621 96.7591 252.539 96.3786 252.381 96.0324C252.336 95.8916 252.259 95.7652 252.157 95.6648C252.055 95.5644 251.931 95.4931 251.797 95.4573C251.714 95.4394 251.628 95.4529 251.552 95.4954C251.477 95.5379 251.417 95.607 251.383 95.6911C251.33 95.8175 251.383 95.906 251.336 95.9187C251.289 95.9313 251.248 95.8491 251.272 95.6595C251.293 95.5479 251.346 95.4464 251.424 95.3688C251.537 95.2734 251.678 95.2262 251.821 95.2361C251.992 95.2661 252.154 95.3426 252.291 95.4587C252.428 95.5748 252.535 95.7265 252.603 95.8997C252.799 96.2874 252.901 96.722 252.901 97.1637C252.901 98.0675 252.516 98.9333 251.92 99.1482C251.81 99.1882 251.693 99.201 251.578 99.1857C251.463 99.1704 251.352 99.1274 251.254 99.0597C251.12 98.9207 251.079 98.8196 251.12 98.8132Z" fill="#FF9A6C"/>
<path d="M240.725 100.121C240.76 100.121 240.76 100.387 240.62 100.753C240.416 101.247 240.083 101.664 239.662 101.954C239.252 102.253 238.766 102.403 238.272 102.384C237.892 102.346 237.688 102.207 237.688 102.175C237.688 102.144 237.922 102.175 238.272 102.175C238.717 102.14 239.147 101.983 239.522 101.72C239.9 101.458 240.217 101.106 240.45 100.69C240.608 100.343 240.678 100.109 240.725 100.121Z" fill="#263238"/>
<path d="M261.632 277.821L262.87 292.989L267.262 304.719C267.334 304.923 267.365 305.142 267.353 305.36C267.341 305.578 267.286 305.791 267.192 305.985C267.098 306.179 266.967 306.349 266.808 306.483C266.649 306.618 266.465 306.715 266.269 306.767C266.037 306.841 265.792 306.858 265.553 306.814C265.314 306.77 265.087 306.667 264.891 306.514C262.385 304.542 253.351 297.287 253.252 296.345C253.123 295.119 250.816 280.185 250.816 280.185L261.632 277.821Z" fill="#455A64"/>
<path d="M266.304 306.785L253.036 294.632L253.17 295.757C253.257 296.389 253.269 296.705 253.666 297.091C257.192 300.547 260.897 303.784 264.762 306.785C265 306.906 265.259 306.968 265.521 306.968C265.784 306.968 266.043 306.906 266.281 306.785H266.304Z" fill="#263238"/>
<path d="M255.617 289.892C255.811 290.001 255.959 290.186 256.031 290.409C256.103 290.633 256.092 290.877 256.002 291.093C255.885 291.301 255.702 291.457 255.487 291.53C255.273 291.603 255.04 291.589 254.834 291.491C254.632 291.375 254.478 291.179 254.404 290.944C254.33 290.709 254.342 290.453 254.437 290.227C254.579 290.022 254.785 289.881 255.017 289.831C255.249 289.781 255.489 289.825 255.693 289.955" fill="white"/>
<path d="M262.181 300.529C262.269 300.567 262.52 299.732 263.349 299.214C263.875 298.936 264.443 298.758 265.025 298.69C265.025 298.652 264.832 298.557 264.482 298.544C264.02 298.54 263.565 298.673 263.168 298.93C262.781 299.172 262.468 299.533 262.269 299.966C262.14 300.295 262.14 300.522 262.181 300.529Z" fill="#263238"/>
<path d="M263.454 302.444C263.53 302.507 263.956 301.957 264.704 301.654C265.176 301.506 265.655 301.39 266.14 301.306C265.895 301.184 265.627 301.125 265.357 301.131C265.087 301.138 264.821 301.211 264.581 301.344C263.728 301.698 263.384 302.412 263.454 302.444Z" fill="#263238"/>
<path d="M259.933 298.146C260.517 297.644 261.136 297.189 261.784 296.787C262.484 296.477 263.205 296.222 263.939 296.022C263.143 295.893 262.33 296.058 261.632 296.49C260.429 297.116 259.88 298.108 259.933 298.146Z" fill="#263238"/>
<path d="M259.179 293.558C259.226 293.646 260.014 293.204 261.077 293.052C262.14 292.9 263.022 293.052 263.045 292.97C262.419 292.645 261.709 292.556 261.03 292.717C260.343 292.762 259.69 293.058 259.179 293.558Z" fill="#263238"/>
<path d="M258.712 289.108C259.326 288.775 259.996 288.577 260.682 288.527C261.368 288.477 262.056 288.576 262.707 288.818C262.707 288.78 262.549 288.609 262.181 288.445C261.696 288.239 261.176 288.153 260.657 288.192C260.139 288.224 259.635 288.386 259.185 288.666C258.835 288.881 258.677 289.077 258.712 289.108Z" fill="#263238"/>
<path d="M260.552 287.68C260.552 287.68 260.587 287.472 260.516 287.105C260.414 286.583 260.215 286.089 259.932 285.651C259.74 285.306 259.449 285.037 259.103 284.887C258.983 284.848 258.855 284.847 258.735 284.886C258.615 284.924 258.507 284.999 258.426 285.102C258.356 285.203 258.306 285.318 258.278 285.441C258.25 285.563 258.244 285.691 258.262 285.816C258.363 286.336 258.628 286.803 259.012 287.136C259.395 287.469 259.873 287.648 260.365 287.642C260.856 287.651 261.338 287.504 261.753 287.22C262.168 286.936 262.497 286.527 262.701 286.043C262.747 285.925 262.768 285.797 262.762 285.669C262.756 285.541 262.723 285.416 262.666 285.304C262.591 285.194 262.488 285.111 262.369 285.065C262.251 285.019 262.122 285.012 262 285.045C261.646 285.168 261.327 285.385 261.071 285.677C260.708 286.039 260.405 286.466 260.178 286.941C260.084 287.108 260.024 287.296 260.003 287.491C260.336 286.874 260.751 286.314 261.235 285.828C261.464 285.583 261.745 285.401 262.052 285.297C262.119 285.277 262.189 285.28 262.254 285.305C262.319 285.33 262.375 285.376 262.414 285.437C262.447 285.513 262.463 285.596 262.463 285.68C262.463 285.764 262.447 285.847 262.414 285.923C262.229 286.333 261.94 286.678 261.582 286.92C261.224 287.161 260.81 287.289 260.388 287.288C259.971 287.29 259.566 287.14 259.238 286.863C258.91 286.585 258.677 286.197 258.578 285.759C258.549 285.586 258.583 285.407 258.671 285.26C258.715 285.201 258.774 285.158 258.841 285.137C258.907 285.115 258.979 285.116 259.045 285.139C259.338 285.267 259.588 285.487 259.763 285.771C260.133 286.35 260.4 286.997 260.552 287.68Z" fill="#263238"/>
<path d="M226.277 278.605L226.826 291.466C226.826 291.466 214.159 296.357 214.036 298.746L238.593 298.551L238.541 278.472L226.277 278.605Z" fill="#455A64"/>
<path d="M234.412 290.322C234.643 290.384 234.844 290.538 234.974 290.754C235.104 290.97 235.153 291.231 235.113 291.485C235.042 291.734 234.888 291.945 234.68 292.078C234.473 292.21 234.227 292.253 233.991 292.199C233.748 292.134 233.536 291.971 233.399 291.743C233.262 291.516 233.211 291.24 233.255 290.973C233.352 290.717 233.534 290.509 233.766 290.392C233.998 290.275 234.262 290.257 234.505 290.341" fill="#E0E0E0"/>
<path d="M238.593 298.55L238.511 296.528L214.994 297.47C214.994 297.47 213.907 297.963 214.036 298.734L238.593 298.55Z" fill="#263238"/>
<path d="M226.429 291.352C226.429 291.472 227.012 291.523 227.596 291.908C228.18 292.294 228.508 292.806 228.618 292.755C228.729 292.704 228.543 292.003 227.818 291.548C227.094 291.093 226.399 291.232 226.429 291.352Z" fill="#263238"/>
<path d="M223.859 292.445C223.859 292.565 224.355 292.768 224.764 293.28C225.173 293.791 225.301 294.341 225.418 294.335C225.535 294.329 225.611 293.634 225.085 293.008C224.56 292.382 223.865 292.332 223.859 292.445Z" fill="#263238"/>
<path d="M222.422 295.593C222.533 295.593 222.691 295.011 222.381 294.329C222.072 293.646 221.505 293.406 221.453 293.507C221.4 293.608 221.756 293.962 222.002 294.512C222.247 295.062 222.305 295.586 222.422 295.593Z" fill="#263238"/>
<path d="M226.621 288.394C226.674 288.508 227.205 288.337 227.9 288.394C228.595 288.451 229.109 288.647 229.167 288.546C229.226 288.445 228.724 288.009 227.923 287.971C227.123 287.933 226.592 288.3 226.621 288.394Z" fill="#263238"/>
<path d="M222.002 186.238C222.002 186.977 224.852 289.791 224.852 289.791H240.036L243.113 201.842C243.113 201.842 246.705 247.826 246.705 248.818C246.705 249.811 249.87 290.284 249.87 290.284L263.945 289.115L263.016 196.552L261.299 182.977L222.002 186.238Z" fill="#263238"/>
<path d="M244.696 198.587C244.504 198.705 244.297 198.794 244.083 198.853C243.68 199.004 243.09 199.213 242.366 199.485L242.232 199.529V199.383C242.15 198.151 242.05 196.495 241.963 194.681C241.864 192.716 241.794 190.94 241.758 189.625C241.758 188.993 241.729 188.456 241.729 188.096C241.712 187.908 241.724 187.717 241.764 187.533C241.813 187.714 241.841 187.901 241.846 188.09C241.887 188.45 241.928 188.974 241.969 189.613C242.062 190.877 242.167 192.678 242.261 194.669C242.354 196.482 242.418 198.138 242.453 199.377L242.307 199.276C243.043 199.055 243.639 198.878 244.059 198.764C244.266 198.683 244.479 198.623 244.696 198.587Z" fill="#455A64"/>
<path d="M243.528 187.9C243.528 187.9 243.575 187.818 243.732 187.761C243.954 187.698 244.19 187.72 244.398 187.824C244.555 187.886 244.689 188.002 244.781 188.153C244.873 188.305 244.916 188.484 244.906 188.665C244.887 188.893 244.798 189.108 244.655 189.277C244.511 189.446 244.321 189.56 244.112 189.6C243.9 189.634 243.683 189.605 243.485 189.515C243.287 189.424 243.116 189.277 242.991 189.088C242.903 188.942 242.856 188.772 242.856 188.598C242.856 188.424 242.903 188.254 242.991 188.109C243.112 187.912 243.288 187.764 243.493 187.685C243.645 187.628 243.732 187.641 243.738 187.653C243.744 187.666 243.394 187.774 243.183 188.203C243.122 188.318 243.092 188.449 243.098 188.582C243.105 188.714 243.146 188.842 243.218 188.949C243.313 189.084 243.439 189.19 243.584 189.254C243.729 189.318 243.887 189.34 244.042 189.316C244.187 189.286 244.319 189.209 244.424 189.097C244.528 188.984 244.598 188.84 244.626 188.684C244.637 188.554 244.612 188.424 244.552 188.311C244.492 188.197 244.402 188.107 244.293 188.052C244.059 187.915 243.791 187.862 243.528 187.9Z" fill="#455A64"/>
<path d="M250.501 188.968C250.419 188.968 250.302 188.526 250.244 187.969C250.186 187.413 250.203 186.952 250.285 186.946C250.367 186.939 250.483 187.382 250.542 187.938C250.6 188.494 250.583 188.968 250.501 188.968Z" fill="#455A64"/>
<path d="M251.552 188.848C251.47 188.848 251.4 188.374 251.4 187.786C251.4 187.198 251.459 186.724 251.546 186.724C251.634 186.724 251.698 187.198 251.698 187.786C251.698 188.374 251.64 188.848 251.552 188.848Z" fill="#455A64"/>
<path d="M233.255 189.556C233.174 189.556 233.045 189.031 232.969 188.368C232.893 187.704 232.899 187.148 232.969 187.142C233.039 187.135 233.18 187.666 233.255 188.336C233.331 189.006 233.337 189.549 233.255 189.556Z" fill="#455A64"/>
<path d="M234.534 189.657C234.265 189.303 234.131 188.851 234.161 188.393C234.097 187.951 234.191 187.499 234.423 187.129C234.511 187.129 234.423 187.71 234.464 188.393C234.505 189.075 234.616 189.632 234.534 189.657Z" fill="#455A64"/>
<path d="M229.734 188.285C229.74 188.437 229.722 188.589 229.681 188.734C229.608 189.144 229.506 189.548 229.378 189.941C228.945 191.268 228.309 192.507 227.497 193.607C226.654 194.741 225.653 195.726 224.53 196.527C224.185 196.773 223.826 196.997 223.456 197.197C223.321 197.279 223.178 197.344 223.03 197.393C223.03 197.355 223.578 197.026 224.414 196.375C225.488 195.55 226.451 194.567 227.275 193.455C228.071 192.371 228.718 191.168 229.197 189.884C229.553 188.905 229.687 188.273 229.734 188.285Z" fill="#455A64"/>
<path d="M262.555 195.212C262.405 195.26 262.25 195.286 262.093 195.288C261.67 195.324 261.244 195.324 260.82 195.288C259.434 195.144 258.1 194.641 256.931 193.822C255.823 193.037 254.93 191.946 254.344 190.662C254.173 190.288 254.04 189.896 253.946 189.493C253.899 189.351 253.877 189.201 253.882 189.05C253.929 189.05 254.057 189.682 254.519 190.586C255.135 191.808 256.019 192.848 257.094 193.613C258.227 194.404 259.507 194.914 260.844 195.105C261.889 195.231 262.549 195.162 262.555 195.212Z" fill="#455A64"/>
<path d="M237.822 247.276C237.822 247.346 235.288 246.752 232.204 245.962C229.121 245.172 226.633 244.464 226.656 244.394C226.68 244.325 229.191 244.913 232.274 245.709C235.358 246.505 237.84 247.207 237.822 247.276Z" fill="#455A64"/>
<path d="M262.28 243.535C262.315 243.598 260.125 244.83 257.392 246.297C254.659 247.763 252.405 248.894 252.37 248.825C252.335 248.755 254.525 247.523 257.258 246.063C259.991 244.603 262.245 243.472 262.28 243.535Z" fill="#455A64"/>
<path d="M214.632 151.421L216.705 154.233V149.398H223.246C223.246 149.398 223.97 160.465 223.83 162.822C223.675 164.051 223.407 165.26 223.03 166.431C222.834 167.112 222.48 167.728 222.001 168.218C221.521 168.708 220.934 169.057 220.294 169.229C219.654 169.402 218.984 169.394 218.348 169.205C217.712 169.015 217.132 168.652 216.664 168.15C215.932 167.379 215.249 166.556 214.62 165.685C211.7 161.64 206.888 151.781 206.888 151.781L211.934 148.52L214.632 151.421Z" fill="#FFBF9D"/>
<path d="M214.217 150.903C214.464 151.352 214.75 151.775 215.07 152.167C215.654 152.906 216.39 153.924 217.26 155.023C218.13 156.123 218.959 157.096 219.596 157.76C219.918 158.143 220.292 158.471 220.705 158.733C220.409 158.332 220.089 157.952 219.748 157.596C219.164 156.9 218.358 155.908 217.487 154.808C215.765 152.571 214.293 150.827 214.217 150.903Z" fill="#FF9A6C"/>
<path d="M229.547 117.426L236.444 114.493L249.146 113.716L255.115 116.174L246.933 121.091L239.878 120.813L229.547 117.426Z" fill="#FFBF9D"/>
<path d="M221.412 187.641C222.037 187.755 263.653 189.67 263.653 189.67L262.216 149.152L262.093 141.201L259.757 117.116C259.757 117.116 253.532 114.796 250.361 113.69C250.361 113.69 247.02 117.482 240.666 117.356C234.458 117.261 233.162 115.744 233.162 115.744L224.484 119.347C224.484 119.347 218.311 121.742 217.248 124.7C216.185 127.658 214.328 144.008 214.328 144.008H223.327L223.088 173.061L221.412 187.641Z" fill="#455A64"/>
<g opacity="0.2">
<path d="M247.581 133.592L248.872 143.805L255.115 146.82L259.728 142.567V133.087L247.581 133.592Z" fill="black"/>
</g>
<path d="M259.565 136.512C259.565 136.594 256.972 136.664 253.771 136.664C250.571 136.664 247.972 136.594 247.972 136.512C249.902 136.354 251.837 136.301 253.771 136.354C255.704 136.301 257.637 136.353 259.565 136.512Z" fill="#263238"/>
<path d="M218.609 128.928C218.638 129.017 218.662 129.107 218.679 129.2C218.72 129.402 218.772 129.655 218.842 129.977C219.067 130.952 219.343 131.913 219.672 132.853C220.086 134.06 220.67 135.482 221.388 137.075C222.107 138.667 222.679 140.569 223.316 142.592C223.316 145.019 223.316 147.648 223.269 150.448C223.211 156.641 223.152 162.247 223.117 166.336C223.082 168.346 223.059 169.983 223.035 171.152C223.035 171.695 223.024 172.132 223 172.46C223.003 172.613 222.993 172.765 222.971 172.915C222.961 172.762 222.961 172.607 222.971 172.454C222.971 172.134 222.971 171.698 222.971 171.146C222.971 169.983 222.971 168.34 222.971 166.33C222.971 162.241 223.018 156.635 223.047 150.448C223.047 147.673 223.094 145.019 223.111 142.592V142.636C222.486 140.614 221.885 138.737 221.231 137.125C220.606 135.737 220.049 134.316 219.561 132.865C219.245 131.916 218.989 130.945 218.796 129.958C218.737 129.611 218.69 129.326 218.667 129.162C218.641 129.086 218.621 129.008 218.609 128.928Z" fill="#263238"/>
<path d="M262.73 124.201C262.75 124.489 262.75 124.778 262.73 125.067C262.73 125.699 262.683 126.47 262.648 127.418C262.572 129.453 262.473 132.17 262.362 135.172C262.251 138.174 262.123 140.898 262.041 142.933C261.988 143.881 261.947 144.671 261.912 145.284C261.911 145.573 261.884 145.861 261.831 146.144C261.809 145.856 261.809 145.566 261.831 145.278C261.831 144.646 261.831 143.875 261.871 142.927C261.918 140.936 262 138.193 262.117 135.166C262.233 132.139 262.362 129.389 262.479 127.411C262.537 126.419 262.596 125.616 262.648 125.06C262.652 124.772 262.679 124.484 262.73 124.201Z" fill="#263238"/>
<g opacity="0.3">
<path d="M218.632 130.413C218.473 134.86 219.942 139.196 222.72 142.478C221.873 138.301 219.759 134.414 218.632 130.413Z" fill="black"/>
</g>
<g opacity="0.3">
<path d="M236.911 170.501C238.868 170.219 240.652 169.144 241.904 167.493C243.222 165.9 244.35 164.136 245.262 162.241C246.44 159.663 247.108 156.847 247.225 153.974C244.801 161.008 241.25 166.57 236.911 170.501Z" fill="black"/>
</g>
<path d="M247.996 150.909C247.992 150.996 247.98 151.083 247.961 151.168C247.92 151.37 247.867 151.61 247.809 151.901C247.75 152.192 247.657 152.603 247.528 153.045C247.4 153.488 247.277 153.993 247.09 154.543C246.681 155.837 246.202 157.103 245.654 158.335C244.314 161.352 242.594 164.153 240.544 166.658C239.707 167.681 238.809 168.644 237.857 169.54C237.466 169.938 237.075 170.254 236.742 170.545C236.409 170.836 236.117 171.07 235.866 171.253L235.282 171.676C235.148 171.765 235.077 171.816 235.072 171.803C235.123 171.736 235.182 171.677 235.247 171.626L235.79 171.158C236.029 170.969 236.316 170.722 236.637 170.419C236.958 170.115 237.338 169.787 237.723 169.389C238.645 168.472 239.521 167.502 240.345 166.481C241.344 165.222 242.274 163.901 243.131 162.525C243.968 161.138 244.733 159.701 245.42 158.221C245.973 157.005 246.466 155.758 246.898 154.486C247.096 153.949 247.236 153.443 247.371 153.007C247.505 152.571 247.616 152.192 247.698 151.882C247.78 151.573 247.838 151.364 247.896 151.168C247.955 150.972 247.984 150.903 247.996 150.909Z" fill="#263238"/>
<path d="M246.793 138.231C246.783 138.371 246.766 138.511 246.74 138.648C246.693 138.945 246.629 139.337 246.553 139.824C246.477 140.31 246.36 140.955 246.191 141.669C246.022 142.383 245.87 143.211 245.607 144.096C245.49 144.538 245.362 145.006 245.227 145.493C245.093 145.979 244.918 146.472 244.754 146.984C244.445 148.027 244.024 149.101 243.586 150.239C241.668 155.149 239.09 159.726 235.936 163.821C235.194 164.743 234.499 165.641 233.787 166.412C233.436 166.804 233.109 167.196 232.771 167.543C232.432 167.891 232.111 168.232 231.795 168.548C231.211 169.18 230.581 169.73 230.043 170.21C229.506 170.691 229.074 171.089 228.689 171.398L227.807 172.119C227.711 172.21 227.605 172.289 227.491 172.353C227.577 172.251 227.67 172.158 227.772 172.075L228.618 171.31C228.992 170.988 229.448 170.589 229.944 170.09C230.441 169.591 231.042 169.06 231.644 168.396L232.601 167.385C232.934 167.031 233.255 166.639 233.6 166.248C234.307 165.47 234.99 164.573 235.726 163.644C238.853 159.556 241.425 155.006 243.364 150.132C243.797 149 244.217 147.939 244.532 146.908C244.702 146.39 244.877 145.904 245.017 145.423C245.157 144.943 245.286 144.482 245.414 144.039C245.683 143.161 245.852 142.345 246.033 141.631C246.214 140.917 246.343 140.304 246.436 139.798C246.53 139.293 246.617 138.933 246.676 138.636C246.701 138.497 246.74 138.361 246.793 138.231Z" fill="#263238"/>
<path d="M213.908 125.635L229.932 152.002C230.009 152.127 230.051 152.273 230.053 152.422C230.055 152.572 230.017 152.719 229.943 152.846C229.87 152.972 229.764 153.073 229.639 153.137C229.514 153.2 229.374 153.223 229.238 153.203L210.783 150.675C210.686 150.66 210.593 150.625 210.508 150.571C210.424 150.516 210.351 150.445 210.293 150.359L192.667 124.308C192.58 124.188 192.527 124.042 192.516 123.889C192.504 123.737 192.534 123.584 192.601 123.449C192.669 123.315 192.772 123.205 192.897 123.133C193.021 123.061 193.163 123.03 193.304 123.044L212.29 124.561C212.618 124.593 212.934 124.707 213.215 124.893C213.496 125.08 213.733 125.333 213.908 125.635Z" fill="#E0E0E0"/>
<path d="M213.907 125.635C213.868 125.549 213.819 125.469 213.761 125.395C213.599 125.177 213.401 124.993 213.177 124.852C212.797 124.637 212.374 124.526 211.945 124.529L210.24 124.378L199.296 123.449L195.669 123.145L193.742 122.987C193.573 122.987 193.427 122.987 193.234 122.987C193.037 122.994 192.848 123.077 192.702 123.221C192.554 123.367 192.459 123.566 192.433 123.781C192.407 123.996 192.453 124.214 192.562 124.397L197.69 132.012C201.311 137.365 205.282 143.249 209.457 149.43C209.726 149.816 209.965 150.189 210.257 150.593C210.347 150.7 210.459 150.783 210.585 150.833C210.699 150.877 210.819 150.902 210.941 150.909L211.595 150.997L214.176 151.351L219.222 152.034L228.764 153.298C228.963 153.298 229.127 153.355 229.348 153.367C229.462 153.368 229.575 153.345 229.68 153.298C229.786 153.252 229.881 153.183 229.962 153.096C230.115 152.926 230.204 152.701 230.213 152.464C230.204 152.233 230.126 152.011 229.991 151.832L228.753 149.784L226.417 145.992L222.235 139.147C219.677 134.983 217.61 131.601 216.168 129.257L214.503 126.571C214.316 126.28 214.17 126.046 214.059 125.882C214.012 125.8 213.96 125.721 213.902 125.648C213.942 125.735 213.987 125.819 214.036 125.901L214.451 126.609C214.824 127.241 215.367 128.157 216.062 129.326L222.054 139.28L226.207 146.144L228.543 149.967L229.757 151.971C229.862 152.104 229.924 152.27 229.932 152.445C229.927 152.611 229.864 152.768 229.757 152.887C229.648 153.004 229.502 153.07 229.348 153.07C229.191 153.07 228.975 153.02 228.794 153.001L219.234 151.68L214.188 150.991L211.607 150.637L210.958 150.549C210.861 150.54 210.766 150.521 210.672 150.492C210.59 150.458 210.516 150.403 210.456 150.334C210.199 149.955 209.942 149.582 209.685 149.196C205.504 143.028 201.509 137.15 197.9 131.797C196.084 129.13 194.367 126.59 192.755 124.213C192.695 124.119 192.659 124.01 192.652 123.896C192.645 123.782 192.666 123.668 192.714 123.566C192.762 123.464 192.835 123.378 192.924 123.318C193.014 123.257 193.117 123.224 193.222 123.221C193.357 123.221 193.543 123.221 193.701 123.253L195.628 123.404L199.261 123.682L210.24 124.504L211.957 124.63C212.375 124.615 212.791 124.713 213.166 124.915C213.458 125.094 213.711 125.34 213.907 125.635Z" fill="#263238"/>
<path d="M192.667 124.327C192.794 124.362 192.923 124.383 193.053 124.39L194.174 124.517L198.344 124.915L212.523 126.179L212.412 126.109C213.3 127.538 214.217 129.016 215.134 130.533C218.877 136.758 222.142 142.484 224.612 146.555C225.839 148.596 226.861 150.226 227.573 151.351L228.402 152.615C228.492 152.77 228.596 152.914 228.712 153.045C228.635 152.884 228.549 152.728 228.455 152.577L227.672 151.257L224.793 146.409C222.375 142.307 219.134 136.569 215.391 130.337C214.474 128.802 213.551 127.323 212.658 125.913L212.617 125.85H212.576L198.391 124.713L194.215 124.409L193.088 124.34C192.948 124.324 192.808 124.32 192.667 124.327Z" fill="#263238"/>
<path d="M203.652 128.353C203.663 128.3 203.684 128.251 203.713 128.207C203.742 128.164 203.779 128.127 203.822 128.099C203.864 128.071 203.911 128.053 203.961 128.046C204.01 128.038 204.06 128.042 204.108 128.056C204.296 128.102 204.468 128.205 204.604 128.353C204.691 128.439 204.747 128.554 204.763 128.68C204.779 128.806 204.754 128.934 204.692 129.042C204.511 129.288 204.108 129.193 203.909 128.991C203.82 128.917 203.749 128.82 203.704 128.708C203.659 128.597 203.641 128.474 203.652 128.353Z" fill="white"/>
<path d="M212.272 143.129C212.272 143.129 212.996 141.233 211.151 141.006C208.92 140.88 206.684 140.88 204.453 141.006C204.453 141.006 201.795 141.309 202.356 143.369C202.356 143.369 200.791 144.886 201.632 146.529C202.473 148.172 202.8 147.679 202.8 147.679C202.8 147.679 202.578 149.683 203.968 149.98C203.968 149.98 205.486 151.92 206.888 151.8C208.289 151.68 214.217 148.59 214.608 148.008C215 147.427 215.56 147.06 215.227 146.384C215.227 146.384 215.952 144.608 214.386 144.336C214.398 144.305 214.287 142.832 212.272 143.129Z" fill="#FFBF9D"/>
<path d="M203.851 143.805C204.262 143.898 204.682 143.932 205.101 143.906C205.872 143.906 206.935 143.906 208.108 143.906C209.12 143.938 210.132 143.875 211.134 143.717C211.928 143.515 212.243 143.009 212.208 142.996C211.865 143.232 211.485 143.397 211.087 143.483C210.357 143.616 209.276 143.534 208.103 143.578C206.929 143.622 205.866 143.635 205.095 143.673C204.677 143.663 204.259 143.707 203.851 143.805Z" fill="#FF9A6C"/>
<path d="M205.171 146.839C205.294 146.917 205.432 146.967 205.574 146.984C205.958 147.069 206.351 147.096 206.742 147.066C207.312 147.019 207.876 146.907 208.424 146.731C209.043 146.548 209.703 146.289 210.398 146.062C211.044 145.83 211.712 145.68 212.389 145.613C212.975 145.672 213.563 145.544 214.083 145.246C214.286 145.098 214.429 144.872 214.486 144.614C214.523 144.422 214.498 144.221 214.416 144.045C214.27 143.761 214.071 143.742 214.077 143.755C214.083 143.767 214.217 143.843 214.305 144.102C214.361 144.278 214.357 144.47 214.294 144.642C214.23 144.815 214.112 144.958 213.96 145.044C213.461 145.282 212.913 145.371 212.372 145.303C211.67 145.35 210.977 145.495 210.31 145.733L208.348 146.434C207.817 146.613 207.275 146.744 206.724 146.826C206.207 146.864 205.688 146.869 205.171 146.839Z" fill="#FF9A6C"/>
<path d="M207.156 149.398C207.582 149.372 208.002 149.285 208.406 149.139C209.165 148.931 210.205 148.608 211.326 148.21C212.447 147.812 213.475 147.401 214.2 147.079C214.611 146.939 215.004 146.742 215.368 146.491C215.332 146.403 213.51 147.123 211.28 147.888C209.049 148.653 207.133 149.31 207.156 149.398Z" fill="#FF9A6C"/>
<path d="M206.683 151.775C207.032 151.808 207.384 151.765 207.717 151.648C208.532 151.434 209.324 151.132 210.082 150.745C210.97 150.309 211.747 149.86 212.307 149.538C212.628 149.391 212.927 149.195 213.195 148.956C212.076 149.347 210.992 149.844 209.954 150.441C208.208 151.351 206.672 151.68 206.683 151.775Z" fill="#FF9A6C"/>
<path d="M265.679 133.706C265.679 133.706 261.906 150.062 257.194 156.104C252.627 161.956 245.473 159.264 242.997 151.68C240.52 144.096 236.105 126.836 236.105 126.836L241.525 122.349L250.869 141.998L255.091 128.606L265.679 133.706Z" fill="#FFBF9D"/>
<path d="M236.357 127.304L232.379 121.066C231.801 120.931 231.234 120.74 230.686 120.497C230.236 120.213 229.792 117.735 229.804 117.255C229.816 116.775 229.033 115.643 229.349 115.321C229.664 114.999 230.727 114.98 230.668 114.518C230.668 114.417 229.88 113.381 230.499 112.622C230.84 112.378 231.22 112.205 231.62 112.111L231.556 109.728C231.556 109.728 232.724 106.922 233.956 107.939C233.956 107.939 238.529 111.731 238.99 112.363C239.452 112.995 241.215 120.889 241.525 122.374" fill="#FFBF9D"/>
<path d="M241.525 122.362C241.519 122.221 241.499 122.081 241.466 121.944C241.402 121.641 241.326 121.249 241.227 120.756C241.017 119.72 240.696 118.228 240.263 116.389C240.041 115.466 239.802 114.493 239.492 113.387C239.417 113.122 239.335 112.85 239.23 112.572C239.109 112.289 238.924 112.043 238.692 111.858C238.272 111.46 237.834 111.068 237.384 110.67C236.479 109.88 235.515 109.058 234.517 108.217C234.265 107.974 233.981 107.772 233.676 107.617C233.497 107.571 233.311 107.571 233.133 107.617C232.954 107.663 232.788 107.754 232.648 107.882C232.126 108.374 231.71 108.982 231.427 109.665V109.703C231.427 109.936 231.427 110.183 231.427 110.429C231.427 110.986 231.427 111.542 231.474 112.085L231.579 111.934C231.304 112.006 231.034 112.103 230.773 112.224C230.628 112.29 230.495 112.384 230.382 112.502C230.281 112.63 230.206 112.778 230.16 112.938C230.086 113.254 230.11 113.588 230.23 113.886C230.279 114.029 230.339 114.167 230.411 114.297L230.511 114.481V114.525C230.513 114.539 230.513 114.554 230.511 114.569C230.511 114.62 230.394 114.695 230.283 114.74C230.172 114.784 230.049 114.828 229.927 114.872C229.8 114.909 229.675 114.953 229.553 115.005C229.4 115.053 229.266 115.155 229.173 115.296C229.112 115.458 229.112 115.639 229.173 115.801C229.208 115.938 229.253 116.071 229.308 116.2C229.407 116.452 229.518 116.693 229.6 116.926C229.641 117.033 229.665 117.146 229.67 117.261C229.672 117.397 229.684 117.532 229.705 117.666C229.74 117.925 229.781 118.178 229.833 118.431C229.924 118.918 230.047 119.397 230.201 119.865C230.275 120.11 230.394 120.336 230.551 120.529C230.742 120.662 230.951 120.763 231.17 120.826C231.573 120.959 231.971 121.066 232.338 121.161L232.274 121.117L235.194 125.642L236.012 126.868C236.102 127.015 236.204 127.155 236.316 127.285C236.241 127.128 236.157 126.976 236.064 126.83L235.294 125.566C234.599 124.447 233.623 122.886 232.426 120.977V120.94H232.432C232.058 120.838 231.667 120.725 231.264 120.592C231.077 120.534 230.898 120.449 230.732 120.339C230.607 120.173 230.512 119.982 230.452 119.777C230.303 119.319 230.186 118.85 230.102 118.374C230.055 118.127 230.014 117.881 229.979 117.628C229.979 117.508 229.979 117.375 229.979 117.261C229.974 117.114 229.946 116.969 229.897 116.832C229.81 116.572 229.699 116.332 229.605 116.086C229.554 115.97 229.513 115.849 229.483 115.726C229.451 115.632 229.451 115.529 229.483 115.435C229.55 115.359 229.635 115.305 229.728 115.277C229.844 115.227 229.963 115.185 230.084 115.15C230.207 115.106 230.335 115.068 230.464 115.011C230.624 114.958 230.759 114.837 230.838 114.676C230.859 114.625 230.869 114.569 230.867 114.512C230.865 114.472 230.855 114.433 230.838 114.398V114.348L230.738 114.165C230.676 114.045 230.621 113.92 230.575 113.792C230.481 113.554 230.46 113.29 230.516 113.04C230.547 112.918 230.603 112.806 230.68 112.711C230.768 112.627 230.869 112.561 230.978 112.515C231.224 112.401 231.477 112.308 231.737 112.237L231.842 112.205V112.085C231.842 111.542 231.813 110.992 231.795 110.436C231.795 110.189 231.795 109.936 231.795 109.709V109.778C232.055 109.141 232.44 108.571 232.922 108.11C233.026 108.006 233.152 107.932 233.288 107.893C233.425 107.855 233.568 107.853 233.705 107.889C233.977 108.033 234.23 108.216 234.458 108.432C235.463 109.273 236.426 110.088 237.332 110.872C237.787 111.264 238.225 111.649 238.64 112.035C238.85 112.196 239.017 112.414 239.125 112.667C239.224 112.926 239.306 113.198 239.387 113.457C239.697 114.518 239.971 115.523 240.182 116.433C240.62 118.247 240.982 119.72 241.233 120.775C241.355 121.262 241.449 121.654 241.519 121.951C241.508 122.088 241.51 122.225 241.525 122.362Z" fill="#FF9A6C"/>
<path d="M231.62 112.11C231.62 112.161 232.082 112.11 232.788 112.199C233.211 112.27 233.629 112.373 234.038 112.509C234.575 112.591 235.119 112.591 235.656 112.509C236.116 112.439 236.585 112.483 237.027 112.638C237.47 112.794 237.873 113.056 238.208 113.406C238.467 113.717 238.674 114.074 238.821 114.462C238.824 114.236 238.784 114.013 238.703 113.805C238.623 113.598 238.504 113.41 238.354 113.254C238.05 112.893 237.675 112.61 237.256 112.426C236.741 112.211 236.186 112.135 235.638 112.205C235.124 112.275 234.604 112.275 234.091 112.205C233.669 112.078 233.237 111.996 232.8 111.959C232.401 111.924 232 111.976 231.62 112.11Z" fill="#FF9A6C"/>
<path d="M233.238 111.978C233.302 112.016 233.489 111.725 233.466 111.314C233.442 110.903 233.226 110.644 233.168 110.682C233.109 110.72 233.168 110.998 233.168 111.314C233.168 111.63 233.162 111.946 233.238 111.978Z" fill="#FF9A6C"/>
<path d="M230.528 114.607C231.684 114.726 232.849 114.628 233.974 114.316C234.382 114.171 234.812 114.111 235.241 114.139C235.573 114.218 235.866 114.428 236.064 114.727C236.236 115.025 236.389 115.335 236.52 115.656C236.54 115.273 236.439 114.894 236.234 114.582C236.024 114.214 235.688 113.95 235.299 113.848C234.836 113.79 234.366 113.839 233.921 113.994C232.07 114.449 230.528 114.518 230.528 114.607Z" fill="#FF9A6C"/>
<path d="M229.921 116.857C230.199 116.927 230.489 116.927 230.768 116.857C231.287 116.794 231.988 116.598 232.747 116.433C233.098 116.349 233.457 116.311 233.816 116.32C234.095 116.325 234.365 116.432 234.581 116.623C234.775 116.816 234.907 117.071 234.961 117.35C234.961 117.35 235.013 117.268 235.007 117.097C234.984 116.857 234.882 116.633 234.721 116.465C234.485 116.213 234.171 116.062 233.839 116.042C233.448 116.012 233.055 116.044 232.671 116.136C231.889 116.301 231.211 116.528 230.709 116.642C230.44 116.684 230.176 116.756 229.921 116.857Z" fill="#FF9A6C"/>
<path d="M231.264 118.639C231.217 118.677 231.609 119.119 232.321 119.119L232.181 118.987C232.181 119.119 232.181 119.252 232.222 119.385C232.241 119.927 232.352 120.46 232.549 120.958C232.626 120.425 232.611 119.88 232.502 119.353L232.45 118.955V118.816H232.327C231.968 118.8 231.611 118.741 231.264 118.639Z" fill="#FF9A6C"/>
<path d="M259.711 117.141C259.711 117.141 267.437 119.164 267.419 130.255C267.402 141.347 265.083 146.82 265.083 146.82L250.84 138.408L254.04 129.794L259.711 117.141Z" fill="#455A64"/>
<path d="M265.083 146.82C264.981 146.788 264.883 146.741 264.791 146.681L263.962 146.226L260.925 144.494L250.77 138.572L250.653 138.509L250.7 138.376L251.465 136.215C252.376 133.655 253.217 131.216 254.034 128.998C254.431 127.892 254.805 126.836 255.161 125.838C255.472 124.91 255.849 124.01 256.288 123.145C256.875 121.852 257.76 120.744 258.858 119.928C259.166 119.72 259.506 119.572 259.863 119.492C259.953 119.471 260.045 119.459 260.137 119.454H260.236C259.769 119.56 259.324 119.757 258.922 120.036C257.869 120.87 257.027 121.979 256.475 123.259C256.056 124.121 255.695 125.014 255.395 125.932C255.05 126.925 254.682 127.98 254.291 129.092L251.745 136.322L250.98 138.484L250.91 138.282L261.048 144.305L264.038 146.125L264.838 146.63C264.926 146.684 265.008 146.747 265.083 146.82Z" fill="#263238"/>
</svg>
