<svg width="25" height="24" viewBox="0 0 25 24" fill="none" xmlns="http://www.w3.org/2000/svg">
<path d="M15.5916 18.5C14.9083 18.5 14.3333 18.2667 13.8666 17.8C13.4 17.3333 13.1666 16.7583 13.1666 16.075C13.1666 15.3917 13.4 14.8167 13.8666 14.35C14.3333 13.8833 14.9083 13.65 15.5916 13.65C16.275 13.65 16.85 13.8833 17.3166 14.35C17.7833 14.8167 18.0166 15.3917 18.0166 16.075C18.0166 16.7583 17.7833 17.3333 17.3166 17.8C16.85 18.2667 16.275 18.5 15.5916 18.5ZM5.16663 22C4.76663 22 4.41663 21.85 4.11663 21.55C3.81663 21.25 3.66663 20.9 3.66663 20.5V5C3.66663 4.6 3.81663 4.25 4.11663 3.95C4.41663 3.65 4.76663 3.5 5.16663 3.5H6.79163V2H8.41663V3.5H16.9166V2H18.5416V3.5H20.1666C20.5666 3.5 20.9166 3.65 21.2166 3.95C21.5166 4.25 21.6666 4.6 21.6666 5V20.5C21.6666 20.9 21.5166 21.25 21.2166 21.55C20.9166 21.85 20.5666 22 20.1666 22H5.16663ZM5.16663 20.5H20.1666V9.75H5.16663V20.5ZM5.16663 8.25H20.1666V5H5.16663V8.25ZM5.16663 8.25V5V8.25Z" fill="#95AAFF"/>
</svg>
