<svg width="25" height="24" viewBox="0 0 25 24" fill="none" xmlns="http://www.w3.org/2000/svg">
<path d="M5.16663 22C4.76663 22 4.41663 21.85 4.11663 21.55C3.81663 21.25 3.66663 20.9 3.66663 20.5V5C3.66663 4.6 3.81663 4.25 4.11663 3.95C4.41663 3.65 4.76663 3.5 5.16663 3.5H6.79163V2H8.41663V3.5H16.9166V2H18.5416V3.5H20.1666C20.5666 3.5 20.9166 3.65 21.2166 3.95C21.5166 4.25 21.6666 4.6 21.6666 5V20.5C21.6666 20.9 21.5166 21.25 21.2166 21.55C20.9166 21.85 20.5666 22 20.1666 22H5.16663ZM5.16663 20.5H20.1666V9.75H5.16663V20.5ZM5.16663 8.25H20.1666V5H5.16663V8.25ZM5.16663 8.25V5V8.25Z" fill="#95AAFF"/>
</svg>
