<svg width="25" height="24" viewBox="0 0 25 24" fill="none" xmlns="http://www.w3.org/2000/svg">
<path d="M16.0083 16.825L17.1333 15.7L13.1583 11.7V6.675H11.6583V12.3L16.0083 16.825ZM12.3333 22C10.9666 22 9.67492 21.7375 8.45825 21.2125C7.24159 20.6875 6.17909 19.9708 5.27075 19.0625C4.36242 18.1542 3.64575 17.0917 3.12075 15.875C2.59575 14.6583 2.33325 13.3667 2.33325 12C2.33325 10.6333 2.59575 9.34167 3.12075 8.125C3.64575 6.90833 4.36242 5.84583 5.27075 4.9375C6.17909 4.02917 7.24159 3.3125 8.45825 2.7875C9.67492 2.2625 10.9666 2 12.3333 2C13.6999 2 14.9916 2.2625 16.2083 2.7875C17.4249 3.3125 18.4874 4.02917 19.3958 4.9375C20.3041 5.84583 21.0208 6.90833 21.5458 8.125C22.0708 9.34167 22.3333 10.6333 22.3333 12C22.3333 13.3667 22.0708 14.6583 21.5458 15.875C21.0208 17.0917 20.3041 18.1542 19.3958 19.0625C18.4874 19.9708 17.4249 20.6875 16.2083 21.2125C14.9916 21.7375 13.6999 22 12.3333 22ZM12.3333 20.5C14.6666 20.5 16.6666 19.6667 18.3333 18C19.9999 16.3333 20.8333 14.3333 20.8333 12C20.8333 9.66667 19.9999 7.66667 18.3333 6C16.6666 4.33333 14.6666 3.5 12.3333 3.5C9.99992 3.5 7.99992 4.33333 6.33325 6C4.66659 7.66667 3.83325 9.66667 3.83325 12C3.83325 14.3333 4.66659 16.3333 6.33325 18C7.99992 19.6667 9.99992 20.5 12.3333 20.5Z" fill="#95AAFF"/>
</svg>
