<svg width="24" height="24" viewBox="0 0 24 24" fill="none" xmlns="http://www.w3.org/2000/svg">
<path fill-rule="evenodd" clip-rule="evenodd" d="M1.70001 20C1.48335 20 1.30418 19.9291 1.16251 19.7875C1.02085 19.6458 0.950012 19.4666 0.950012 19.25V17.65C0.950012 17.0666 1.10001 16.5375 1.40001 16.0625C1.70001 15.5875 2.11668 15.2333 2.65001 15C3.86668 14.4666 4.96251 14.0833 5.93751 13.85C6.91251 13.6166 7.91668 13.5 8.95001 13.5C9.98335 13.5 10.9833 13.6166 11.95 13.85C12.9167 14.0833 14.0083 14.4666 15.225 15C15.7583 15.2333 16.1792 15.5875 16.4875 16.0625C16.7958 16.5375 16.95 17.0666 16.95 17.65V19.25C16.95 19.4666 16.8792 19.6458 16.7375 19.7875C16.5958 19.9291 16.4167 20 16.2 20H1.70001ZM8.95001 11.975C7.85001 11.975 6.95001 11.625 6.25001 10.925C5.55001 10.225 5.20001 9.32498 5.20001 8.22498C5.20001 7.12498 5.55001 6.22498 6.25001 5.52498C6.95001 4.82498 7.85001 4.47498 8.95001 4.47498C10.05 4.47498 10.95 4.82498 11.65 5.52498C12.35 6.22498 12.7 7.12498 12.7 8.22498C12.7 9.32498 12.35 10.225 11.65 10.925C10.95 11.625 10.05 11.975 8.95001 11.975ZM15.45 18.5V17.65C15.45 17.3833 15.3708 17.125 15.2125 16.875C15.0542 16.625 14.8583 16.45 14.625 16.35C13.425 15.8166 12.4167 15.4583 11.6 15.275C10.7833 15.0916 9.90001 15 8.95001 15C8.00001 15 7.11251 15.0916 6.28751 15.275C5.46251 15.4583 4.45001 15.8166 3.25001 16.35C3.01668 16.45 2.82501 16.625 2.67501 16.875C2.52501 17.125 2.45001 17.3833 2.45001 17.65V18.5H15.45ZM8.95001 10.475C9.60001 10.475 10.1375 10.2625 10.5625 9.83748C10.9875 9.41248 11.2 8.87498 11.2 8.22498C11.2 7.57498 10.9875 7.03748 10.5625 6.61248C10.1375 6.18748 9.60001 5.97498 8.95001 5.97498C8.30001 5.97498 7.76251 6.18748 7.33751 6.61248C6.91251 7.03748 6.70001 7.57498 6.70001 8.22498C6.70001 8.87498 6.91251 9.41248 7.33751 9.83748C7.76251 10.2625 8.30001 10.475 8.95001 10.475Z" fill="#224DFF"/>
<path d="M17.95 8.22498C17.95 9.32498 17.6 10.225 16.9 10.925C16.2 11.625 15.3 11.975 14.2 11.975C14.0167 11.975 13.8125 11.9625 13.5875 11.9375C13.3625 11.9125 13.1583 11.8666 12.975 11.8C13.375 11.3833 13.6792 10.8708 13.8875 10.2625C14.0958 9.65414 14.2 8.97498 14.2 8.22498C14.2 7.47498 14.0958 6.81248 13.8875 6.23748C13.6792 5.66248 13.375 5.13331 12.975 4.64998C13.1583 4.59998 13.3625 4.55831 13.5875 4.52498C13.8125 4.49164 14.0167 4.47498 14.2 4.47498C15.3 4.47498 16.2 4.82498 16.9 5.52498C17.6 6.22498 17.95 7.12498 17.95 8.22498Z" fill="#3E414D"/>
<path d="M17.9 20C18.0667 19.9666 18.2 19.8791 18.3 19.7375C18.4 19.5958 18.45 19.4166 18.45 19.2V17.65C18.45 16.6 18.1833 15.7375 17.65 15.0625C17.1167 14.3875 16.4167 13.8416 15.55 13.425C16.7 13.5583 17.7833 13.7541 18.8 14.0125C19.8167 14.2708 20.6417 14.5666 21.275 14.9C21.825 15.2166 22.2583 15.6083 22.575 16.075C22.8917 16.5416 23.05 17.0666 23.05 17.65V19.25C23.05 19.4666 22.9792 19.6458 22.8375 19.7875C22.6958 19.9291 22.5167 20 22.3 20H17.9Z" fill="#3E414D"/>
</svg>
