<svg width="25" height="24" viewBox="0 0 25 24" fill="none" xmlns="http://www.w3.org/2000/svg">
<path d="M3.83325 22C3.43325 22 3.08325 21.85 2.78325 21.55C2.48325 21.25 2.33325 20.9 2.33325 20.5V8.5C2.33325 8.1 2.48325 7.75 2.78325 7.45C3.08325 7.15 3.43325 7 3.83325 7H9.75825V3.5C9.75825 3.1 9.90825 2.75 10.2083 2.45C10.5083 2.15 10.8583 2 11.2583 2H13.4333C13.8333 2 14.1833 2.15 14.4833 2.45C14.7833 2.75 14.9333 3.1 14.9333 3.5V7H20.8333C21.2333 7 21.5833 7.15 21.8833 7.45C22.1833 7.75 22.3333 8.1 22.3333 8.5V20.5C22.3333 20.9 22.1833 21.25 21.8833 21.55C21.5833 21.85 21.2333 22 20.8333 22H3.83325ZM3.83325 20.5H20.8333V8.5H14.9333C14.9333 8.96667 14.7791 9.33333 14.4708 9.6C14.1624 9.86667 13.7749 10 13.3083 10H11.3583C10.9083 10 10.5291 9.86667 10.2208 9.6C9.91242 9.33333 9.75825 8.96667 9.75825 8.5H3.83325V20.5ZM6.13325 17.825H12.1083V17.475C12.1083 17.175 12.0333 16.9083 11.8833 16.675C11.7333 16.4417 11.5416 16.2833 11.3083 16.2C10.7749 16.0167 10.3583 15.8958 10.0583 15.8375C9.75825 15.7792 9.46659 15.75 9.18325 15.75C8.86659 15.75 8.52909 15.7875 8.17075 15.8625C7.81242 15.9375 7.40825 16.05 6.95825 16.2C6.70825 16.2833 6.50825 16.4417 6.35825 16.675C6.20825 16.9083 6.13325 17.175 6.13325 17.475V17.825ZM14.5333 16.15H18.7833V14.9H14.5333V16.15ZM9.18325 14.9C9.56659 14.9 9.88742 14.7667 10.1458 14.5C10.4041 14.2333 10.5333 13.9167 10.5333 13.55C10.5333 13.1667 10.4041 12.8458 10.1458 12.5875C9.88742 12.3292 9.56659 12.2 9.18325 12.2C8.81659 12.2 8.49992 12.3292 8.23325 12.5875C7.96659 12.8458 7.83325 13.1667 7.83325 13.55C7.83325 13.9167 7.96659 14.2333 8.23325 14.5C8.49992 14.7667 8.81659 14.9 9.18325 14.9ZM14.5333 13.325H18.7833V12.075H14.5333V13.325ZM11.2583 8.5H13.4333V3.5H11.2583V8.5Z" fill="#95AAFF"/>
</svg>
