<svg width="25" height="24" viewBox="0 0 25 24" fill="none" xmlns="http://www.w3.org/2000/svg">
<path d="M4.16663 20C3.76663 20 3.41663 19.85 3.11663 19.55C2.81663 19.25 2.66663 18.9 2.66663 18.5V5.5C2.66663 5.1 2.81663 4.75 3.11663 4.45C3.41663 4.15 3.76663 4 4.16663 4H21.1666C21.5666 4 21.9166 4.15 22.2166 4.45C22.5166 4.75 22.6666 5.1 22.6666 5.5V18.5C22.6666 18.9 22.5166 19.25 22.2166 19.55C21.9166 19.85 21.5666 20 21.1666 20H4.16663ZM12.6666 12.45L4.16663 6.875V18.5H21.1666V6.875L12.6666 12.45ZM12.6666 10.95L21.0666 5.5H4.29163L12.6666 10.95ZM4.16663 6.875V5.5V18.5V6.875Z" fill="#95AAFF"/>
</svg>
