<svg width="17" height="16" viewBox="0 0 17 16" fill="none" xmlns="http://www.w3.org/2000/svg">
<path d="M16.4997 8.18387C16.4997 7.64007 16.4547 7.09333 16.3588 6.55835H8.66089V9.6389H13.0691C12.8862 10.6324 12.2984 11.5113 11.4378 12.0698V14.0687H14.0677C15.6121 12.6754 16.4997 10.6177 16.4997 8.18387Z" fill="#4285F4"/>
<path d="M8.66071 16C10.8618 16 12.7181 15.2916 14.0705 14.0688L11.4406 12.07C10.7089 12.5579 9.76426 12.8342 8.66371 12.8342C6.53458 12.8342 4.72931 11.4262 4.08157 9.5332H1.36768V11.5938C2.75311 14.2951 5.57497 16 8.66071 16Z" fill="#34A853"/>
<path d="M4.07905 9.53314C3.73718 8.5396 3.73718 7.46376 4.07905 6.47023V4.40967H1.36815C0.210618 6.67011 0.210618 9.33326 1.36815 11.5937L4.07905 9.53314Z" fill="#FBBC04"/>
<path d="M8.66071 3.16633C9.82424 3.1487 10.9488 3.57786 11.7914 4.36563L14.1215 2.08167C12.6461 0.723645 10.6879 -0.0229766 8.66071 0.000539093C5.57497 0.000539093 2.75311 1.70542 1.36768 4.40972L4.07857 6.47028C4.72331 4.57433 6.53158 3.16633 8.66071 3.16633Z" fill="#EA4335"/>
</svg>
