<svg width="25" height="24" viewBox="0 0 25 24" fill="none" xmlns="http://www.w3.org/2000/svg">
<path d="M12.6666 11.75C13.15 11.75 13.5625 11.5792 13.9041 11.2375C14.2458 10.8958 14.4166 10.4833 14.4166 10C14.4166 9.51667 14.2458 9.10417 13.9041 8.7625C13.5625 8.42083 13.15 8.25 12.6666 8.25C12.1833 8.25 11.7708 8.42083 11.4291 8.7625C11.0875 9.10417 10.9166 9.51667 10.9166 10C10.9166 10.4833 11.0875 10.8958 11.4291 11.2375C11.7708 11.5792 12.1833 11.75 12.6666 11.75ZM12.6666 20.025C14.8833 18.0083 16.5208 16.1792 17.5791 14.5375C18.6375 12.8958 19.1666 11.45 19.1666 10.2C19.1666 8.23333 18.5375 6.625 17.2791 5.375C16.0208 4.125 14.4833 3.5 12.6666 3.5C10.85 3.5 9.31246 4.125 8.05413 5.375C6.79579 6.625 6.16663 8.23333 6.16663 10.2C6.16663 11.45 6.70829 12.8958 7.79163 14.5375C8.87496 16.1792 10.5 18.0083 12.6666 20.025ZM12.6666 22C9.98329 19.7167 7.97913 17.5958 6.65413 15.6375C5.32913 13.6792 4.66663 11.8667 4.66663 10.2C4.66663 7.7 5.47079 5.70833 7.07913 4.225C8.68746 2.74167 10.55 2 12.6666 2C14.7833 2 16.6458 2.74167 18.2541 4.225C19.8625 5.70833 20.6666 7.7 20.6666 10.2C20.6666 11.8667 20.0041 13.6792 18.6791 15.6375C17.3541 17.5958 15.35 19.7167 12.6666 22Z" fill="#95AAFF"/>
</svg>
