<svg width="25" height="24" viewBox="0 0 25 24" fill="none" xmlns="http://www.w3.org/2000/svg">
<path d="M3.33325 20.45V8.15C3.09992 8.11667 2.87492 7.95 2.65825 7.65C2.44159 7.35 2.33325 7.025 2.33325 6.675V3.5C2.33325 3.11667 2.48325 2.77083 2.78325 2.4625C3.08325 2.15417 3.43325 2 3.83325 2H20.8333C21.2166 2 21.5624 2.15417 21.8708 2.4625C22.1791 2.77083 22.3333 3.11667 22.3333 3.5V6.675C22.3333 7.025 22.2249 7.35 22.0083 7.65C21.7916 7.95 21.5666 8.11667 21.3333 8.15V20.45C21.3333 20.8333 21.1791 21.1875 20.8708 21.5125C20.5624 21.8375 20.2166 22 19.8333 22H4.83325C4.43325 22 4.08325 21.8375 3.78325 21.5125C3.48325 21.1875 3.33325 20.8333 3.33325 20.45ZM4.83325 8.175V20.5H19.8333V8.175H4.83325ZM20.8333 6.675V3.5H3.83325V6.675H20.8333ZM9.33325 13.425H15.3333V11.925H9.33325V13.425ZM4.83325 20.5V8.175V20.5Z" fill="#95AAFF"/>
</svg>
