<svg width="24" height="24" viewBox="0 0 24 24" fill="none" xmlns="http://www.w3.org/2000/svg">
<path d="M7 11.75V10.25H16.75V11.75H7Z" fill="#224DFF"/>
<path fill-rule="evenodd" clip-rule="evenodd" d="M4.5 21C4.08333 21 3.72917 20.8542 3.4375 20.5625C3.14583 20.2708 3 19.9167 3 19.5V4.5C3 4.08333 3.14583 3.72917 3.4375 3.4375C3.72917 3.14583 4.08333 3 4.5 3H19.5C19.9167 3 20.2708 3.14583 20.5625 3.4375C20.8542 3.72917 21 4.08333 21 4.5V19.5C21 19.9167 20.8542 20.2708 20.5625 20.5625C20.2708 20.8542 19.9167 21 19.5 21H4.5ZM4.5 19.5H19.5V6.5H4.5V19.5Z" fill="#3E414D"/>
<path d="M7 15.75V14.25H12.75V15.75H7Z" fill="#224DFF"/>
</svg>
