<svg width="25" height="24" viewBox="0 0 25 24" fill="none" xmlns="http://www.w3.org/2000/svg">
<path d="M12.3333 22C9.99992 21.4167 8.08325 20.0625 6.58325 17.9375C5.08325 15.8125 4.33325 13.4833 4.33325 10.95V5L12.3333 2L20.3333 5V10.95C20.3333 13.4833 19.5833 15.8125 18.0833 17.9375C16.5833 20.0625 14.6666 21.4167 12.3333 22ZM12.3333 20.45C14.2499 19.8167 15.8124 18.6208 17.0208 16.8625C18.2291 15.1042 18.8333 13.1333 18.8333 10.95V6.05L12.3333 3.6L5.83325 6.05V10.95C5.83325 13.1333 6.43742 15.1042 7.64575 16.8625C8.85409 18.6208 10.4166 19.8167 12.3333 20.45Z" fill="#95AAFF"/>
</svg>
