<svg width="24" height="24" viewBox="0 0 24 24" fill="none" xmlns="http://www.w3.org/2000/svg">
<path d="M12 16.75C13.1833 16.75 14.1875 16.3375 15.0125 15.5125C15.8375 14.6875 16.25 13.6833 16.25 12.5C16.25 11.3167 15.8375 10.3125 15.0125 9.4875C14.1875 8.6625 13.1833 8.25 12 8.25C10.8167 8.25 9.8125 8.6625 8.9875 9.4875C8.1625 10.3125 7.75 11.3167 7.75 12.5C7.75 13.6833 8.1625 14.6875 8.9875 15.5125C9.8125 16.3375 10.8167 16.75 12 16.75ZM12 15.3C11.2167 15.3 10.5542 15.0292 10.0125 14.4875C9.47083 13.9458 9.2 13.2833 9.2 12.5C9.2 11.7167 9.47083 11.0542 10.0125 10.5125C10.5542 9.97083 11.2167 9.7 12 9.7C12.7833 9.7 13.4458 9.97083 13.9875 10.5125C14.5292 11.0542 14.8 11.7167 14.8 12.5C14.8 13.2833 14.5292 13.9458 13.9875 14.4875C13.4458 15.0292 12.7833 15.3 12 15.3ZM12 20C9.56667 20 7.36667 19.3083 5.4 17.925C3.43333 16.5417 1.96667 14.7333 1 12.5C1.96667 10.2667 3.43333 8.45833 5.4 7.075C7.36667 5.69167 9.56667 5 12 5C14.4333 5 16.6333 5.69167 18.6 7.075C20.5667 8.45833 22.0333 10.2667 23 12.5C22.0333 14.7333 20.5667 16.5417 18.6 17.925C16.6333 19.3083 14.4333 20 12 20ZM12 18.5C14.0167 18.5 15.8708 17.9542 17.5625 16.8625C19.2542 15.7708 20.5417 14.3167 21.425 12.5C20.5417 10.6833 19.2542 9.22917 17.5625 8.1375C15.8708 7.04583 14.0167 6.5 12 6.5C9.98333 6.5 8.12917 7.04583 6.4375 8.1375C4.74583 9.22917 3.45 10.6833 2.55 12.5C3.45 14.3167 4.74583 15.7708 6.4375 16.8625C8.12917 17.9542 9.98333 18.5 12 18.5Z" fill="#696A6E"/>
</svg>
