<svg width="322" height="201" viewBox="0 0 322 201" fill="none" xmlns="http://www.w3.org/2000/svg">
<g clip-path="url(#clip0_17667_2461)">
<g clip-path="url(#clip1_17667_2461)">
<path d="M239.561 70.803C239.561 70.803 232.012 11.7326 187.473 54.2016C130.377 108.641 91.9974 0.441891 49.6419 44.6075C26.5022 68.735 87.6485 122.695 46.8114 151.093C5.97436 179.49 39.3456 200.75 39.3456 200.75H271.229C271.229 200.75 295.234 202.483 297.051 172.108C298.865 141.733 270.961 141.365 288.28 103.353C305.598 65.3417 245.003 94.9974 239.561 70.803Z" fill="#F4F5F5"/>
<g opacity="0.5">
<path opacity="0.5" d="M159.472 102.793C166.568 102.793 172.321 97.0403 172.321 89.9439C172.321 82.8475 166.568 77.0947 159.472 77.0947C152.375 77.0947 146.622 82.8475 146.622 89.9439C146.622 97.0403 152.375 102.793 159.472 102.793Z" fill="white" stroke="#4D6173" stroke-width="0.677341" stroke-miterlimit="10"/>
<g opacity="0.5">
<path d="M159.472 85.4556C159.571 86.2029 159.637 86.9525 159.684 87.6998C159.714 88.0746 159.725 88.4472 159.745 88.8219C159.766 89.1967 159.77 89.5693 159.784 89.9441L159.689 89.7206C160.185 90.1789 160.671 90.6508 161.154 91.1204C161.633 91.5968 162.114 92.0732 162.579 92.5631C162.816 92.8047 163.046 93.0508 163.274 93.3014C163.504 93.5498 163.733 93.7981 163.956 94.0533C164.408 94.559 164.848 95.0738 165.266 95.6134C164.719 95.207 164.193 94.778 163.678 94.3378C163.419 94.121 163.164 93.8975 162.911 93.6717C162.656 93.4482 162.405 93.2224 162.157 92.9921C161.655 92.5383 161.17 92.0687 160.682 91.6013C160.201 91.1272 159.718 90.653 159.251 90.1653L159.151 90.0637L159.156 89.9418C159.169 89.567 159.174 89.1945 159.194 88.8197C159.215 88.4449 159.226 88.0724 159.255 87.6976C159.307 86.9502 159.373 86.2029 159.472 85.4556Z" fill="#4D6173"/>
</g>
</g>
<g opacity="0.2">
<rect x="224.306" y="89.1411" width="28.9106" height="53.8059" fill="white" stroke="#A4B6C6" stroke-width="1.60615"/>
<rect x="224.306" y="135.719" width="28.9106" height="7.22766" stroke="#A4B6C6" stroke-width="1.60615"/>
<rect x="224.306" y="128.492" width="28.9106" height="7.22766" stroke="#A4B6C6" stroke-width="1.60615"/>
<rect x="224.306" y="121.264" width="28.9106" height="7.22766" stroke="#A4B6C6" stroke-width="1.60615"/>
<rect x="224.306" y="114.036" width="28.9106" height="7.22766" stroke="#A4B6C6" stroke-width="1.60615"/>
<rect x="224.306" y="106.809" width="28.9106" height="7.22766" stroke="#A4B6C6" stroke-width="1.60615"/>
<rect x="224.306" y="99.5811" width="28.9106" height="7.22766" stroke="#A4B6C6" stroke-width="1.60615"/>
<rect x="224.306" y="93.9595" width="28.9106" height="5.62151" stroke="#A4B6C6" stroke-width="1.60615"/>
<rect x="195.395" y="89.1411" width="28.9106" height="53.8059" stroke="#A4B6C6" stroke-width="1.60615"/>
<rect x="198.608" y="93.9595" width="22.486" height="44.169" fill="white" stroke="#A4B6C6" stroke-width="1.60615"/>
</g>
<g opacity="0.2">
<path d="M83.8472 102.382L83.166 105.082H94.2283L93.5471 102.382M83.8472 102.382L86.9504 90.0822V85.2824H88.6971M83.8472 102.382H93.5471M93.5471 102.382L90.4438 90.0822V85.2824H88.6971M88.6971 85.2824C88.406 82.8825 88.8136 77.2427 92.7727 73.8828" stroke="#A4B6C6" stroke-width="1.60615"/>
<rect x="100.051" y="92.7822" width="14.5557" height="12.5996" rx="3.21229" fill="white" stroke="#A4B6C6" stroke-width="1.60615"/>
<path d="M100.051 96.3818H114.606" stroke="#A4B6C6" stroke-width="1.60615"/>
<path d="M107.328 92.782C105.582 92.582 101.215 91.2821 101.215 87.6822C104.126 87.9822 105.29 88.5822 107.328 92.782ZM107.328 92.782C106.067 90.5821 104.359 85.3423 107.619 81.9824C110.647 85.3423 108.687 90.5821 107.328 92.782ZM107.328 92.782C107.328 93.082 109.657 87.6822 114.315 87.3822C114.315 90.0221 109.657 92.0821 107.328 92.782Z" stroke="#A4B6C6" stroke-width="1.60615"/>
<rect x="77.3437" y="105.382" width="46.5782" height="5.39981" stroke="#A4B6C6" stroke-width="1.60615"/>
</g>
<path d="M39.0515 200.39H260.01" stroke="#A4B6C6" stroke-width="1.60615" stroke-miterlimit="10"/>
<path d="M267.747 200.39H295.055" stroke="#A4B6C6" stroke-width="1.60615" stroke-miterlimit="10"/>
</g>
<path d="M131.54 147.754L123.003 190.593C122.424 193.503 124.352 196.39 127.261 196.97L128.565 197.23L170.1 205.507C173.01 206.087 175.897 204.159 176.477 201.249L186.873 149.08L187.153 147.675C187.733 144.766 185.805 141.878 182.896 141.298L150.791 134.901" fill="#D3D4D4"/>
<path d="M131.54 147.754L123.003 190.593C122.424 193.503 124.352 196.39 127.261 196.97L128.565 197.23L170.1 205.507C173.01 206.087 175.897 204.159 176.477 201.249L186.873 149.08L187.153 147.675C187.733 144.766 185.805 141.878 182.896 141.298L150.791 134.901" stroke="#BFC4C8" stroke-width="1.60615" stroke-miterlimit="10" stroke-linecap="round" stroke-linejoin="round"/>
<path d="M150.792 134.901L147.593 150.953L131.541 147.754L150.792 134.901Z" fill="#BFC4C8" stroke="#BFC4C8" stroke-width="1.60615" stroke-miterlimit="10" stroke-linecap="round" stroke-linejoin="round"/>
<path d="M167.689 145.177L178.248 187.563C178.965 190.442 177.176 193.418 174.298 194.135L173.007 194.456L131.912 204.694C129.033 205.411 126.057 203.622 125.34 200.744L112.481 149.126L112.135 147.736C111.418 144.857 113.207 141.882 116.085 141.164L147.85 133.251" fill="#EAEEF9"/>
<path d="M167.689 145.177L178.248 187.563C178.965 190.442 177.176 193.418 174.298 194.135L173.007 194.456L131.912 204.694C129.033 205.411 126.057 203.622 125.34 200.744L112.481 149.126L112.135 147.736C111.418 144.857 113.207 141.882 116.085 141.164L147.85 133.251" stroke="#BFC4C8" stroke-width="1.60615" stroke-miterlimit="10" stroke-linecap="round" stroke-linejoin="round"/>
<path d="M147.85 133.251L151.806 149.134L167.689 145.177L147.85 133.251Z" fill="#BFC4C8" stroke="#BFC4C8" stroke-width="1.60615" stroke-miterlimit="10" stroke-linecap="round" stroke-linejoin="round"/>
<path d="M178.076 151.282V194.963C178.076 197.93 175.621 200.385 172.654 200.385H171.324H128.973C126.006 200.385 123.551 197.93 123.551 194.963V141.768V140.336C123.551 137.369 126.006 134.914 128.973 134.914H161.708" fill="white"/>
<path d="M178.076 151.282V194.963C178.076 197.93 175.621 200.385 172.654 200.385H171.324H128.973C126.006 200.385 123.551 197.93 123.551 194.963V141.768V140.336C123.551 137.369 126.006 134.914 128.973 134.914H161.708" stroke="#BFC4C8" stroke-width="1.60615" stroke-miterlimit="10" stroke-linecap="round" stroke-linejoin="round"/>
<path d="M161.708 134.914V151.282H178.076L161.708 134.914Z" fill="#BFC4C8" stroke="#BFC4C8" stroke-width="1.60615" stroke-miterlimit="10" stroke-linecap="round" stroke-linejoin="round"/>
<path d="M184.369 193.853L169.83 184.883L171.888 181.55L186.42 190.531L184.369 193.853Z" fill="#D3D4D4" stroke="#BFC4C8" stroke-width="0.923534" stroke-miterlimit="10"/>
<path d="M191.621 198.371L180.471 191.487C179.54 190.912 179.25 189.685 179.824 188.753C180.399 187.822 181.626 187.532 182.558 188.107L193.708 194.992C194.639 195.567 194.929 196.794 194.354 197.725C193.779 198.656 192.552 198.946 191.621 198.371Z" fill="#BFC4C8" stroke="#BFC4C8" stroke-width="0.923534" stroke-miterlimit="10"/>
<path d="M191.116 199.099L176.77 190.241C176.437 190.035 176.334 189.598 176.537 189.256L178.801 185.589C179.007 185.255 179.444 185.152 179.787 185.356L194.132 194.214C194.466 194.42 194.569 194.857 194.365 195.199L192.101 198.866C191.886 199.202 191.449 199.305 191.116 199.099Z" fill="#D3D4D4" stroke="#BFC4C8" stroke-width="0.923534" stroke-miterlimit="10"/>
<path d="M147.563 150.168C135.254 153.079 127.638 165.413 130.549 177.721C133.458 190.02 145.794 197.645 158.093 194.737C170.401 191.826 178.017 179.492 175.106 167.184C172.195 154.875 159.861 147.26 147.563 150.168ZM157.126 190.607C147.244 192.944 137.316 186.703 134.944 176.672C132.572 166.641 138.654 156.623 148.536 154.286C158.418 151.949 168.346 158.191 170.718 168.221C173.091 178.252 166.999 188.272 157.126 190.607Z" fill="#D3D4D4" stroke="#BFC4C8" stroke-width="0.923534" stroke-miterlimit="10"/>
<ellipse cx="152.794" cy="172.311" rx="17.9424" ry="18.0878" transform="rotate(-13.3056 152.794 172.311)" fill="white"/>
<path d="M159.947 172.906C161.308 172.901 162.47 171.73 162.465 170.37C162.46 169.009 161.289 167.847 159.928 167.852C158.568 167.857 157.406 169.028 157.411 170.388C157.416 171.846 158.489 172.911 159.947 172.906Z" fill="#D3D4D4"/>
<path d="M158.469 179.663L157.206 179.668C156.128 177.339 153.307 176.475 151.075 177.649C150.202 178.041 149.428 178.821 149.042 179.697L147.779 179.702C148.837 176.685 152.33 175.117 155.25 176.273C156.612 176.851 157.88 178.013 158.469 179.663Z" fill="#D3D4D4"/>
<path d="M145.492 172.977C146.852 172.972 148.014 171.802 148.009 170.441C148.004 169.08 146.834 167.918 145.473 167.923C144.112 167.928 142.95 169.099 142.955 170.46C143.058 171.917 144.131 172.982 145.492 172.977Z" fill="#D3D4D4"/>
</g>
<defs>
<clipPath id="clip0_17667_2461">
<rect width="321.229" height="200.768" fill="white"/>
</clipPath>
<clipPath id="clip1_17667_2461">
<rect width="270.884" height="167.123" fill="white" transform="translate(26.5011 33.729)"/>
</clipPath>
</defs>
</svg>
